<?xml version="1.0" standalone="no"?>
<!DOCTYPE svg PUBLIC "-//W3C//DTD SVG 1.1//EN" "http://www.w3.org/Graphics/SVG/1.1/DTD/svg11.dtd" >
<svg>
<metadata>
Created by FontForge 20110222 at Mon Mar  7 11:36:13 2011
 By www-data
Cyrillic Part - Yurchenko Bazhen. Kharkov. Ukraine, 1995-99
</metadata>
<defs>
<font id="EncientGermanGothic" horiz-adv-x="500" >
  <font-face 
    font-family="Encient German Gothic"
    font-weight="400"
    font-stretch="normal"
    units-per-em="1000"
    panose-1="4 0 0 0 0 0 0 0 0 0"
    ascent="800"
    descent="-200"
    x-height="493"
    cap-height="680"
    bbox="-105 -338 1195 851"
    underline-thickness="67"
    underline-position="-67"
    unicode-range="U+0020-2030"
  />
    <missing-glyph />
    <glyph glyph-name="space" unicode=" " horiz-adv-x="245" 
 />
    <glyph glyph-name="exclam" unicode="!" horiz-adv-x="286" 
d="M141 620l85 -85q-36 -85 -53.5 -180.5t-17.5 -192.5h-25q0 200 -70 377zM141 130l71 -71l-71 -72l-71 72z" />
    <glyph glyph-name="quotedbl" unicode="&#x22;" horiz-adv-x="334" 
d="M210 667h71l-22 -268h-26zM69 667h71l-22 -268h-26z" />
    <glyph glyph-name="numbersign" unicode="#" horiz-adv-x="620" 
d="M431 433h122l-7 -51h-122l-15 -106h122l-7 -51h-122l-27 -189h-53l27 189h-111l-27 -189h-53l27 189h-118l7 51h118l15 106h-118l7 51h118l24 174h53l-24 -174h111l24 174h53zM356 276l15 106h-111l-15 -106h111z" />
    <glyph glyph-name="dollar" unicode="$" horiz-adv-x="492" 
d="M459 185q0 -61 -45.5 -111t-111.5 -86l-45 22l4 -70l-32 -20l2 53l-2 46q-41 11 -75 11q-74 0 -124 -42l-20 25q32 53 80 85.5t107 28.5l32 -2v142l-12 5q-48 21 -80.5 36.5t-52 31t-28 35.5t-8.5 51q0 39 16.5 72.5t42.5 60t58 44.5t64 25v73l32 18l-4 -91
q35 -3 72.5 -20.5t76.5 -38.5l-51 -86l-52 27l-46 15v-151q91 -35 146.5 -76.5t55.5 -112.5zM229 385v146q-9 0 -19 2l-21 2q-29 3 -52 -12t-23 -40q0 -21 10 -36t26 -26t36.5 -19.5t42.5 -16.5zM391 135q0 45 -39.5 74.5t-94.5 48.5v-137q61 -14 116 -45q18 28 18 59z" />
    <glyph glyph-name="percent" unicode="%" horiz-adv-x="517" 
d="M251 495q0 -56 -27.5 -104t-77.5 -75q-50 21 -81.5 60.5t-31.5 92.5q0 52 28.5 94.5t77.5 76.5q47 -15 79.5 -55t32.5 -90zM404 634l31 -16l-322 -625l-31 17zM484 167q0 -56 -27.5 -105t-77.5 -75q-50 21 -81.5 60.5t-31.5 93.5q0 51 28 94t77 77q49 -15 81 -55.5
t32 -89.5zM205 444q0 49 -27 84.5t-76 51.5q-22 -35 -22 -76q0 -43 31 -80t72 -51q22 34 22 71zM437 116q0 100 -103 136q-21 -36 -21 -77q0 -46 29.5 -80.5t73.5 -49.5q21 30 21 71z" />
    <glyph glyph-name="ampersand" unicode="&#x26;" horiz-adv-x="723" 
d="M694 270l9 -12q-33 -48 -90 -48q-44 0 -81 37l-84 -59q13 -24 26 -47t29 -41t36 -29t47 -11q28 0 49 6.5t43 25.5l16 -9q-39 -96 -138 -96q-44 0 -71.5 10t-47 28.5t-35 45t-36.5 60.5l-204 -144l-142 210l227 148l-61 108q-15 24 -21.5 43.5t-6.5 33.5q0 28 21 40.5
t47 24.5l179 85q40 -24 64.5 -55.5t24.5 -72.5q0 -58 -39 -94q-19 -18 -46.5 -37t-67.5 -43l96 -171l149 104q22 -19 39 -29t42 -15q18 0 27 3zM416 505q0 37 -23.5 69.5t-63.5 32.5q-10 0 -24 -4.5t-26 -12.5t-19.5 -18t-6.5 -22l3 -21q1 -5 4.5 -10t9.5 -14l60 -106
q34 21 60 44.5t26 61.5zM228 60l128 90l-99 176l-146 -95z" />
    <glyph glyph-name="quotesingle" unicode="'" horiz-adv-x="213" 
d="M69 667h71l-22 -268h-26z" />
    <glyph glyph-name="parenleft" unicode="(" horiz-adv-x="311" 
d="M296 713l11 -14q-48 -49 -83 -95.5t-58 -95t-34 -101.5t-11 -116q0 -71 15 -139q8 -37 17.5 -60.5t23.5 -48.5q25 -43 51 -70.5t58 -54.5l-61 -77q-45 31 -82 73.5t-61 93.5q-24 50 -36.5 106.5t-12.5 113.5q0 69 19 136t53.5 129.5t83 118t107.5 101.5z" />
    <glyph glyph-name="parenright" unicode=")" horiz-adv-x="311" 
d="M286 328q0 -143 -71 -269.5t-191 -217.5l-11 13q47 47 81.5 93t57.5 95.5t34.5 103.5t11.5 117q0 57 -9.5 106.5t-24.5 90t-33.5 70.5t-36.5 48l-60 58l60 77q93 -63 143 -167q23 -48 36 -103.5t13 -114.5z" />
    <glyph glyph-name="asterisk" unicode="*" horiz-adv-x="379" 
d="M295 602l44 -31l-22 -51l-51 4l-26 -1q-16 0 -20 -3.5t1 -10t15 -14.5t20 -17l35 -29l-17 -49l-54 4q-3 17 -6.5 37.5t-23.5 57.5q-10 -18 -21 -45l-14 -50l-51 -4l-17 53q43 24 79 67q-15 3 -24 4t-31 1q-10 0 -17.5 -0.5t-12.5 -1.5l-21 -3l-20 48l41 34l47 -33
q10 -7 18.5 -10t29.5 -10q-6 53 -30 99l44 32l42 -32q-3 -5 -7.5 -16.5t-9 -26t-7.5 -30t-3 -28.5q22 6 42.5 18.5t47.5 36.5z" />
    <glyph glyph-name="plus" unicode="+" 
d="M482 374v-53h-205v-196h-55v196h-204v53h204v195h55v-195h205z" />
    <glyph glyph-name="comma" unicode="," horiz-adv-x="233" 
d="M116 137l72 -70q-12 -53 -47 -96t-87 -64l-8 21q19 15 32 29t13 36q0 21 -9.5 33t-35.5 38z" />
    <glyph glyph-name="hyphen" unicode="-" horiz-adv-x="229" 
d="M46 293h172l-36 -80h-172z" />
    <glyph glyph-name="period" unicode="." horiz-adv-x="233" 
d="M116 131l72 -72l-72 -72l-72 72z" />
    <glyph glyph-name="slash" unicode="/" horiz-adv-x="489" 
d="M440 723l42 -22l-439 -853l-43 23z" />
    <glyph glyph-name="zero" unicode="0" horiz-adv-x="491" 
d="M463 331q0 -52 -16 -102t-45 -95t-69 -82.5t-88 -64.5q-101 42 -159.5 122.5t-58.5 186.5q0 102 60.5 190.5t157.5 153.5q102 -40 160 -120t58 -189zM389 254q0 107 -60 186.5t-164 106.5q-30 -40 -47.5 -89.5t-17.5 -97.5q0 -99 60 -171.5t161 -109.5q68 74 68 175z" />
    <glyph glyph-name="one" unicode="1" horiz-adv-x="322" 
d="M286 104l16 -18l-119 -99l-112 79l34 38v352q0 21 -0.5 34t-4 23t-11.5 19t-23 21l-31 -24l-15 18l108 93q25 -15 40 -29t23.5 -31t11 -39t2.5 -54v-341q0 -27 6.5 -46.5t29.5 -30.5z" />
    <glyph glyph-name="two" unicode="2" horiz-adv-x="471" 
d="M451 84l-85 -97q-16 8 -35.5 15t-42.5 14q-39 11 -82 11q-90 0 -174 -40l-12 8q9 37 32.5 77.5t60.5 79.5l145 149q70 85 70 169q0 59 -43 102l-182 -148l-67 66l184 150l215 -133l1 -41q2 -74 -37.5 -125.5t-95.5 -93.5t-116.5 -81t-100.5 -87q26 10 47.5 17.5
t42.5 12.5t42.5 7.5t48.5 2.5q41 0 89.5 -9.5t94.5 -25.5z" />
    <glyph glyph-name="three" unicode="3" horiz-adv-x="470" 
d="M450 179q0 -80 -63 -116q-56 -32 -186 -76l-181 152l72 69l196 -161q26 12 36 41.5t10 62.5q0 36 -10 68.5t-29.5 56.5t-48.5 37t-66 12l-51 -2v32q92 9 136.5 48t44.5 130q0 31 -17.5 41t-45.5 -10l-30 -24l-95 -71l-59 64l143 107l218 -98l1 -13q5 -68 -32 -116.5
t-99 -71.5q66 -15 111 -56.5t45 -105.5z" />
    <glyph glyph-name="four" unicode="4" horiz-adv-x="482" 
d="M445 283l17 -86h-110v-100l24 -14q8 -5 20 -5q6 0 17 6l19 13l13 -17l-117 -93l-107 72l34 46v92h-215l-20 93l256 350q26 -9 41 -20t22.5 -27t10 -37.5t2.5 -51.5v-221h93zM41 283h214v182q0 30 -3.5 47t-22.5 29z" />
    <glyph glyph-name="five" unicode="5" horiz-adv-x="452" 
d="M432 241q0 -51 -15 -89.5t-43.5 -68.5t-71 -53t-98.5 -43l-184 107l68 78l205 -117q56 44 56 117q0 68 -43.5 114.5t-116.5 69.5l-131 -87l64 358h278l-38 -96h-234l-37 -212l190 126q37 -18 64 -39t47 -46t30 -52.5t10 -66.5z" />
    <glyph glyph-name="six" unicode="6" horiz-adv-x="465" 
d="M445 255q-2 -47 -17.5 -82.5t-42.5 -66t-65.5 -59t-86.5 -60.5q-97 33 -155 105t-58 174q0 112 64.5 202.5t173.5 171.5l162 -89l-69 -81l-165 89q-74 -122 -74 -266l208 125q54 -24 89.5 -65.5t35.5 -97.5zM366 190q0 49 -39 89.5t-92 61.5l-120 -73q5 -34 22 -65.5
t43.5 -58t60.5 -45.5t72 -30q23 23 38 55.5t15 65.5z" />
    <glyph glyph-name="seven" unicode="7" horiz-adv-x="467" 
d="M107 627h340l-2 -27q-110 -115 -168 -261t-58 -304l-133 -48q1 78 21 148t55.5 137t84.5 131t108 130h-140q-36 0 -61.5 -2t-45 -10.5t-34 -24.5t-29.5 -44h-25z" />
    <glyph glyph-name="eight" unicode="8" horiz-adv-x="455" 
d="M435 235q0 -75 -50 -128q-46 -51 -141 -119l-19 -1q-38 -2 -74.5 8.5t-65.5 30.5t-47 49t-18 63q0 48 26 86t66 72q-37 12 -59.5 39t-22.5 66q0 57 40 113t109 125l39 2q35 1 69.5 -6.5t61.5 -24t44 -40.5t17 -55q0 -38 -22.5 -69t-65.5 -64q47 -15 80 -55.5t33 -91.5z
M339 466q0 21 -10 35t-26.5 22.5t-36.5 12t-41 4.5l-80 4h-21q-10 -14 -18.5 -34t-8.5 -37q0 -28 18.5 -47.5t55.5 -23.5l117 -13q25 18 38 36t13 41zM389 177q0 41 -22 61t-57 29.5t-80 12.5t-90 9q-23 -21 -36.5 -39t-13.5 -44q0 -27 13.5 -49.5t41.5 -36.5
q55 -28 121 -28q48 0 85.5 20t37.5 65z" />
    <glyph glyph-name="nine" unicode="9" horiz-adv-x="460" 
d="M440 353q0 -109 -60.5 -200.5t-160.5 -165.5l-170 90l68 84l161 -87q15 23 29 51t23.5 57.5t14.5 59t4 55.5l-2 35l-205 -126q-57 29 -89.5 72.5t-32.5 104.5q0 82 55.5 140t151.5 117q102 -42 157.5 -112t55.5 -175zM226 288l116 71q-6 34 -24 65.5t-44.5 57.5t-59.5 44
t-69 26q-47 -44 -47 -105q0 -51 36.5 -93t91.5 -66z" />
    <glyph glyph-name="colon" unicode=":" horiz-adv-x="233" 
d="M116 427l72 -72l-72 -72l-72 72zM116 131l72 -72l-72 -72l-72 72z" />
    <glyph glyph-name="semicolon" unicode=";" horiz-adv-x="233" 
d="M117 427l72 -72l-72 -72l-71 72zM117 137l71 -70q-12 -53 -47 -96t-87 -64l-8 21q19 15 32 29t13 36q0 21 -9.5 33t-35.5 38z" />
    <glyph glyph-name="less" unicode="&#x3c;" 
d="M466 183v-106l-433 214v91l433 213v-106l-319 -153z" />
    <glyph glyph-name="equal" unicode="=" 
d="M482 446v-52h-464v52h464zM482 301v-52h-464v52h464z" />
    <glyph glyph-name="greater" unicode="&#x3e;" 
d="M467 381v-90l-433 -214v106l319 153l-318 154l-1 105z" />
    <glyph glyph-name="question" unicode="?" horiz-adv-x="319" 
d="M287 482q0 -34 -22.5 -71.5t-49.5 -77.5t-49.5 -82t-22.5 -86h-19l-1 16q-2 35 7 75t24 80q16 42 24 70t8 46q0 29 -23.5 51t-52.5 22q-18 0 -33 -8.5t-33 -25.5l-11 8l71 121q36 0 69.5 -8.5t58.5 -25.5t40 -43t15 -61zM131 129l71 -71l-71 -71l-70 71z" />
    <glyph glyph-name="at" unicode="@" horiz-adv-x="684" 
d="M658 378q0 -50 -20.5 -93t-53.5 -78t-74.5 -61t-83.5 -41q-22 17 -31.5 34t-15.5 52l-106 -86q-26 20 -43.5 46t-17.5 55q0 41 19.5 75.5t55.5 73.5l-69 123l17 -1q60 -3 97 34l57 -26q13 -6 27 -8t24 -2q12 0 19 4l17 14l11 -7q-18 -31 -23.5 -53.5t-5.5 -64.5v-137
l-1 -21q0 -16 2.5 -25t16.5 -12q25 2 50.5 25t46.5 54t34 64t13 57q0 53 -19 98.5t-53.5 79t-83 52.5t-108.5 19q-57 0 -109.5 -24t-93 -63.5t-64.5 -91.5t-24 -108q0 -60 21 -115.5t59 -97.5t90.5 -67t116.5 -25q94 0 154 39t96 98l43 2q-13 -33 -41 -64.5t-67 -57
t-86.5 -41t-101.5 -15.5q-69 0 -128.5 28t-103 75.5t-68.5 109.5t-25 129t28 126.5t74.5 104t107 70t125.5 25.5q123 0 211 -79t88 -202zM303 356l76 -33v96l-135 44zM328 169l51 42v96l-83 36q-18 -42 -18 -87q0 -24 13 -45t37 -42z" />
    <glyph glyph-name="A" unicode="A" horiz-adv-x="610" 
d="M604 97l16 -18l-113 -96q-20 13 -32.5 25.5t-20 27.5t-10 34t-2.5 46l-168 -133l-94 61q-30 20 -56 29t-45 9q-24 0 -21.5 -15t9.5 -33t9 -33t-24 -15q-15 0 -24.5 13t-9.5 30q0 25 8 41l116 171q-28 18 -52 40.5t-41 49.5q-34 53 -34 118q0 47 22 89.5t57 74.5t80 51
t90 19q33 0 60 -5t52 -15t51 -25t56 -35q43 48 104 76l11 -17q-45 -26 -61.5 -53t-15.5 -73l1 -37l16 -339q2 -39 4 -62t25 -23q11 0 15 4zM203 292h230l-11 238q-15 15 -33 27zM342 528l28 41q-29 18 -62 24.5t-67 6.5q-35 0 -68.5 -12.5t-60 -34.5t-43 -51.5t-16.5 -63.5
q0 -53 26.5 -96.5t76.5 -78.5l136 195q-51 22 -80.5 11t-44.5 -32l-18 8q10 25 28.5 47t58.5 32q41 11 106 4zM344 68l95 75l-2 78h-283l-39 -56z" />
    <glyph glyph-name="B" unicode="B" horiz-adv-x="733" 
d="M718 359v-14q-11 -6 -14.5 -16t-3.5 -26v-200q-77 -11 -147 -40t-124 -77q-43 27 -89 43.5t-94 16.5q-21 0 -48.5 -3t-52.5 -11.5t-42.5 -22.5t-17.5 -36q0 -10 8.5 -23.5t8.5 -21.5q0 -11 -7.5 -20t-19.5 -9q-15 0 -24.5 13t-9.5 30t20.5 44.5t45 57t45 57t20.5 45.5
t-14 30.5t-30 12.5q-21 0 -31.5 -12.5t-16.5 -31.5h-18q0 51 29 77t79 26q0 38 -16 66t-57 28t-59 -41l-19 4q6 40 28.5 70.5t60.5 30.5l55 -6q0 36 6 63t20.5 49.5t38 43t59.5 44.5l-50 -13q-33 -9 -54.5 -8t-37 5.5t-27.5 10t-25 5.5q-24 0 -36.5 -15t-18.5 -45h-23
q6 59 38 97.5t89 38.5q35 0 69.5 -8.5t68.5 -13.5t66.5 -2t63.5 26l16 -23q-44 -20 -75 -39t-51 -43.5t-29 -57.5t-9 -79v-175q0 -33 -2.5 -56t-10 -41.5t-21.5 -36.5t-38 -40q71 27 99.5 69t28.5 119v145q0 51 6 83t19 54t35 37t53 32l133 59l140 -189l-107 -79zM601 292
v19l-88 44l-36 -27v-38q27 -10 61.5 -11t62.5 13zM477 354l142 106l-123 168q-48 -17 -63.5 -44t-15.5 -81v-183q0 -44 -7 -74.5t-24 -54.5t-44.5 -44t-68.5 -43l47 9q30 2 50 1.5t34.5 -2.5t26 -5t24.5 -6v373h22v-120zM601 198v70q-38 -10 -63.5 -10t-60.5 10v-70
q0 8 16 11t37 3t41.5 -4t29.5 -10zM518 75l83 31v68q-7 4 -22.5 9t-34 7t-36.5 -1t-31 -15v-80z" />
    <glyph glyph-name="C" unicode="C" horiz-adv-x="624" 
d="M598 181l11 -13q-52 -82 -127 -130t-167 -48q-63 0 -118 26t-95.5 69.5t-63.5 101t-23 119.5q0 105 55.5 187.5t153.5 133.5l9 -11q-65 -55 -101.5 -110.5t-36.5 -130.5q0 -95 54 -176q26 19 31.5 42t5.5 61v212l195 166q104 -53 212 -53l-91 -86q-40 6 -72 18t-44 17
l-18 9t-13 6v-501q68 0 128.5 24t114.5 67zM333 91v511l-49 -44v-154q0 -106 -28 -137q-13 -15 -35.5 -36t-58.5 -51q68 -77 171 -89z" />
    <glyph glyph-name="D" unicode="D" horiz-adv-x="713" 
d="M693 292l5 -203l-146 -102q-81 20 -143.5 29t-118 6t-108 -19.5t-114.5 -46.5l-13 19l114 69q38 23 66 44.5t46 46t26.5 54t8.5 69.5v128q2 20 1 35t0.5 31t8 36t22.5 48q-52 -14 -71.5 -51.5t-19.5 -90.5v-113q0 -34 -2.5 -59.5t-10.5 -47.5t-22.5 -41t-39.5 -39
l-68 -56l-72 -49l-13 18q52 34 85 69.5t33 80.5q0 30 -19.5 55.5t-50.5 25.5q-24 0 -48 -24l-14 10q19 42 59 63.5t87 -0.5q0 52 4 87.5t17.5 62t40 49t71.5 47.5l-85 -3q-97 -4 -140 23.5t-43 113.5h13q13 -29 35 -38t55 -7l267 7q100 2 160.5 -26t96.5 -109q21 -46 30 -93
t10 -109zM587 362q0 93 -40 134.5t-133 41.5v-176l42 -22q32 -17 67.5 -7t63.5 29zM597 217l-8 118l-47 -21q-31 -14 -64 -5.5t-64 26.5v-120l45 22q28 13 66 5t72 -25zM392 111v427l-7 1l-8 -1q-24 -32 -30.5 -69t-6.5 -83v-115q0 -31 -2.5 -55t-10 -44t-20 -38t-32.5 -37
q64 14 117 14zM600 77l-3 112q-47 31 -92.5 34t-90.5 -32v-80q15 -1 25.5 -1t27.5 -2t47.5 -9t85.5 -22z" />
    <glyph glyph-name="E" unicode="E" horiz-adv-x="627" 
d="M605 181l7 -9q-45 -77 -118.5 -126t-161.5 -49q-67 0 -125 26.5t-100.5 72t-67 105t-24.5 125.5q0 110 54.5 184.5t160.5 132.5l9 -16q-58 -38 -100.5 -97t-42.5 -132q0 -53 13 -98.5t42 -89.5q24 22 30.5 37.5t6.5 52.5v231l196 156q52 -25 98 -39t95 -14l14 1l6 -15
l-141 -142l115 -3l-53 -92l-162 5v-294q67 0 130 22.5t119 64.5zM356 407l142 143q-38 6 -74 19t-68 32v-194zM335 96v516l-52 -43v-204q0 -33 -6.5 -54t-20.5 -37.5t-37 -34.5t-55 -45q62 -80 171 -98z" />
    <glyph glyph-name="F" unicode="F" horiz-adv-x="727" 
d="M697 680l15 -3q-5 -54 -35.5 -87.5t-81.5 -33.5q-16 0 -35 4.5t-49 18.5v-104h127l-28 -70h-99v-215q0 -51 -6 -81q-5 -27 -30 -56t-56 -44l-92 -45l-147 -65q-52 28 -72 34.5t-31 6.5q-16 0 -26 -12t-17 -29l-19 6q6 42 30 75.5t62 33.5q37 0 66.5 -13.5t71.5 -38.5
q12 8 17 19l6 35l2 45v344q-61 0 -100.5 -12t-74.5 -51l-13 11q15 36 31 59.5t37 37.5t49.5 19.5t70.5 5.5v78q85 9 146.5 38t98.5 89q32 -22 57.5 -35.5t52.5 -13.5q24 0 40.5 12t31.5 37zM420 166v393l-27 -11l-31 -9v-343q0 -41 -2.5 -70t-10 -53.5t-22.5 -47.5t-41 -53
q65 37 99.5 81.5t34.5 112.5z" />
    <glyph glyph-name="G" unicode="G" horiz-adv-x="676" 
d="M660 303q0 -71 -35.5 -128.5t-91.5 -98.5t-123.5 -63.5t-132.5 -22.5q-53 0 -100.5 19t-83.5 52t-57 78.5t-21 98.5q0 79 22.5 134.5t67 103t109.5 94.5t149 110q56 -30 103.5 -49t97.5 -17q26 1 35.5 2t15.5 3l7 -12l-151 -120q36 0 70.5 -14t61.5 -39t43 -58.5
t14 -72.5zM292 377l197 156q-58 14 -102.5 29t-94.5 37v-222zM579 278q-9 51 -48 85.5t-91 34.5q-33 0 -68 -13v-107q46 -35 105 -33.5t102 33.5zM581 252q-23 -11 -45 -20.5t-46 -12.5t-52.5 4t-65.5 29v-93q46 29 90 30.5t97 -30.5q10 22 16 44.5t6 48.5zM548 139
q-27 10 -46.5 17t-38 7.5t-40 -7t-51.5 -25.5v-97q55 0 102 27t74 78zM194 252v258q-40 -41 -63 -95t-23 -109q0 -94 54 -168q21 24 26.5 50t5.5 64zM350 34v343l-58 -33v-75q0 -17 -1 -29.5t-6.5 -23.5t-17.5 -23.5t-34 -29.5l-56 -43q32 -39 78 -62.5t95 -23.5z" />
    <glyph glyph-name="H" unicode="H" horiz-adv-x="727" 
d="M712 277q0 -62 -5 -97t-19 -59t-38 -45t-63 -55l-70 -61q-8 -8 -9.5 -22.5t13.5 -16.5q10 0 22 6l5 1q13 2 19.5 -7t6.5 -19q0 -15 -12.5 -24t-29.5 -9q-23 0 -38.5 16t-15.5 39q0 14 12.5 37.5t30.5 52t38 58.5t35 56t22.5 45.5t-0.5 26.5q-18 16 -47.5 20.5t-62 0.5
t-62.5 -13t-48 -19q-27 -15 -55.5 -36.5t-55.5 -49.5q17 0 41.5 -1.5t56.5 -3.5q36 -2 59.5 0.5t38.5 8t24 14.5t17 19l18 -14l-99 -139q-20 16 -53.5 27t-72.5 17t-78 6t-71 -7.5t-52 -23t-20 -40.5q0 -8 8 -26q11 -20 7 -34.5t-22 -14.5q-17 0 -25 13.5t-8 29.5
q0 17 19.5 44t43 56.5t43 57t19.5 45.5q0 14 -9 27t-24 13q-22 0 -41 -37l-15 3q6 41 27 66t62 25q0 37 -15.5 68.5t-55.5 31.5q-39 0 -66 -36l-15 6q17 51 51 68.5t86 17.5q0 70 19.5 116t73.5 86l-30 -6l-29 -3q-26 -3 -48 6.5t-48 9.5q-49 0 -69 -60l-18 5q9 53 42.5 90
t82.5 37q27 0 60 -4.5t67 -7t66 1t55 19.5l8 -21q-37 -19 -64 -36t-42 -33q-29 -31 -29 -102v-238q0 -33 -3.5 -59.5t-12.5 -43.5l-32 -62q58 36 83 74.5t25 103.5v177q0 44 5.5 77t20.5 58.5t41 44t66 32.5l79 28l7 -21q-71 -25 -94.5 -48t-29.5 -48l-2 -40v-116l166 139
q40 -26 66 -52t40.5 -57t20 -70t5.5 -90zM619 358q-5 40 -29 66.5t-61 50.5l-115 -95v-25q24 -10 51 -16t54.5 -6t53 6t46.5 19zM616 221l1 55l-1 55q-8 -7 -23.5 -12.5t-35 -8.5t-42 -2.5t-44.5 6.5q-13 1 -27 5.5t-30 11.5v-110q0 10 24.5 18t57.5 10t67 -4t53 -24z" />
    <glyph glyph-name="I" unicode="I" horiz-adv-x="566" 
d="M541 673l10 -17l-15 -4q-39 -10 -57.5 -32.5t-18.5 -65.5q0 -20 5.5 -70t12 -105t12 -103t5.5 -65q0 -90 -43 -157q-42 -67 -128 -67q-11 0 -43.5 8.5t-68.5 19.5t-68 19.5t-43 8.5q-24 0 -41.5 -14t-32.5 -39l-12 4q14 49 54 72t82 39.5t74.5 37t32.5 64.5q0 27 -5 53
t-16.5 46.5t-29 32.5t-41.5 12q-20 0 -35 -6.5t-33 -22.5l-9 6q17 33 44.5 56.5t66.5 23.5l29 -4q0 129 98 224l-51 -18q-24 -8 -58 -0.5t-67 7.5q-47 0 -71 -51l-11 2q5 47 37 79.5t79 32.5q9 0 26 -3.5t37 -7t40.5 -7t35.5 -3.5q38 0 72 17l9 -11q-88 -76 -88 -189
q0 -17 3.5 -55t7.5 -80t7.5 -79.5t3.5 -54.5q0 -58 -32.5 -83.5t-89.5 -25.5l64 -54q26 -23 56 -23q38 0 58 26t20 65q0 15 -0.5 30t-3.5 43t-9 75.5t-17 127.5l-4 71q-5 89 37.5 145.5t122.5 68.5z" />
    <glyph glyph-name="J" unicode="J" horiz-adv-x="630" 
d="M601 689l14 -17q-49 -52 -77 -100t-26 -108l7 -199q0 -64 -21 -131t-61 -122t-97.5 -90t-130.5 -35q-11 0 -28 4t-35.5 8.5t-35 8.5t-25.5 4q-17 0 -29.5 -10t-25.5 -26l-15 7q12 44 42.5 75.5t73.5 31.5q9 0 25 -3l32 -6t30.5 -6t20.5 -3q29 0 53 20.5t24 50.5
q0 29 -12 61.5t-33 59t-49 42.5t-60 13l-41 -6l-9 14q35 29 77.5 33t85.5 -24q-2 31 -15.5 57t-34.5 41.5t-48 17.5t-56 -15l-9 15q15 20 38 30.5t48 12.5t47.5 -4.5t36.5 -20.5q0 75 36 123t109 94l-48 -10l-47 -5q-8 -1 -34 4t-56 11t-56 11t-34 5q-26 0 -52 -12.5
t-26 -36.5l24 -7l14 7q17 0 29 -11t12 -30q0 -21 -14.5 -34t-33.5 -13q-27 0 -42.5 21.5t-15.5 51.5q0 29 14 54.5t36.5 44t51 29t57.5 10.5q50 0 105 -12.5t108.5 -20t101 -0.5t80.5 45zM536 627q-98 -47 -139 -127t-39 -197l3 -171q1 -39 -2 -68t-12.5 -51.5t-26.5 -41
t-45 -35.5q76 15 111.5 74.5t34.5 142.5l-3 151q-1 57 2.5 99.5t16.5 79t36.5 70.5t62.5 74z" />
    <glyph glyph-name="K" unicode="K" horiz-adv-x="751" 
d="M722 102l14 -16l-100 -99q-28 22 -48.5 52t-44.5 72l-110 -124q-95 44 -189.5 47t-190.5 -47l-15 22q20 17 45.5 37t48.5 42.5t39 47t16 50.5q0 15 -9 28t-22 20t-28 5.5t-27 -15.5l-16 7q7 23 23 37.5t35.5 19t40 -1.5t37.5 -24l1 14q2 28 -8.5 55t-30 43.5t-45 19
t-53.5 -17.5l-15 3q4 24 21 40t38.5 21.5t45.5 0.5t42 -23q0 36 5.5 62.5t18 49.5t34 45.5t53.5 51.5l-67 -29q-11 -4 -24.5 -6t-25.5 -2l-84 8q-31 3 -56 -19.5t-36 -50.5l-20 6q12 60 50.5 101.5t96.5 41.5q24 0 53.5 -7.5t58.5 -12t56.5 -1t47.5 25.5l9 -8
q-39 -74 -56.5 -142.5t-15.5 -159.5l1 -39q1 -39 -1 -65.5t-10.5 -48.5t-26.5 -41.5t-48 -45.5l-101 -84l96 46q39 18 65 35.5t42 39t22.5 49.5t5.5 68l-1 58q-1 54 4 101.5t13 87.5q16 82 68 147l17 -14q-38 -56 -58 -113t-20 -118l171 136l103 -127l-178 -122
q53 -32 94.5 -88t93.5 -146q25 -18 47 6zM383 283l183 125l-71 87l-112 -89v-123zM476 68l56 63q-30 53 -63.5 84.5t-85.5 46.5q0 -55 -18.5 -88.5t-67.5 -66.5q30 -1 52 -2.5t42 -5t40 -10.5t45 -21z" />
    <glyph glyph-name="L" unicode="L" horiz-adv-x="642" 
d="M610 110l17 -18l-112 -105q-50 41 -106 58t-113.5 14.5t-115.5 -22t-111 -50.5l-12 20q71 44 103 86t32 77q0 17 -7 32.5t-19 26t-28 13.5t-34 -6l-10 11q19 25 47.5 29.5t56.5 -15.5q3 25 -6 45.5t-25.5 32t-39 12.5t-46.5 -14l-12 9q23 30 53 42t65 -1l-2 36
q-3 53 17.5 94.5t61.5 79.5q-50 -19 -91.5 -15t-70.5 8q-30 4 -46 -3t-14 -50l-18 -7l-8 41q-3 21 5.5 40t24 34t35.5 23.5t39 8.5q28 0 57 -9.5t57.5 -16t57 -4t55.5 26.5l9 -15q-43 -32 -64 -64t-21 -79q0 -9 1 -21t2.5 -33t4 -54.5t6.5 -85.5q0 -64 -20 -116t-64 -112
q137 92 137 247l-13 166q0 81 51 124t135 43l11 -23q-49 -6 -79 -27.5t-27 -69.5l13 -175q0 -43 -10 -77t-30 -65t-51.5 -61t-73.5 -66q33 8 55.5 12.5t37.5 6.5t24.5 2.5t17.5 0.5q46 0 88.5 -16.5t77.5 -46.5z" />
    <glyph glyph-name="M" unicode="M" horiz-adv-x="902" 
d="M870 93l17 -18l-111 -89q-22 15 -35.5 29t-20.5 30.5t-9 38t-2 52.5v424l-67 54l-24 -17v-221h55l-55 -73v-188l34 29l16 -15l-162 -143q-20 25 -47.5 50t-57.5 48v12q18 12 25 31t7 42v136h-125v-190q0 -36 -8 -67.5t-25.5 -55t-44 -36t-63.5 -10.5l-84 5
q-21 1 -32 -11.5t-15 -31.5h-21q0 37 13.5 59t34.5 35.5t44.5 22.5t44.5 21t34.5 31t13.5 52q0 20 -6 44.5t-18 46t-30.5 36t-42.5 14.5q-34 0 -53 -30l-17 13q34 67 122 80l1 40q2 73 48.5 132t125.5 102l128 69q39 -22 55 -47t16 -71l169 122l103 -83l41 41l17 -15
q-28 -31 -38 -59t-10 -76v-361q0 -23 5.5 -33.5t25.5 -22.5zM531 376h66v206l-66 -48v-158zM349 376h84v142q0 15 0.5 25.5t-3 20t-13 21t-29.5 27.5q-28 -18 -44 -33.5t-24 -33.5t-10 -41t-2 -57v-128zM597 101v204h-66v-139q0 -22 3.5 -40t11 -28.5t20 -10.5t31.5 14z
M302 558q-49 -38 -50 -90l-3 -88v-194q0 -64 -12 -102.5t-58 -57.5l31 -2q40 -2 58.5 32.5t18.5 93.5v295q0 21 -0.5 34t0.5 24.5t4.5 24t10.5 30.5z" />
    <glyph glyph-name="N" unicode="N" horiz-adv-x="906" 
d="M868 143l23 -9l-83 -145q-18 13 -51 19t-68 0.5t-64.5 -24t-41.5 -53.5l-23 8q2 7 14 30.5t29 56t36 68.5t36 68.5t29 56t15 30.5q-59 41 -128 43t-132 -39v-95q0 -43 -11 -83.5t-33.5 -71.5t-58.5 -49.5t-85 -18.5q-31 0 -64 9.5t-64.5 16t-61 5t-54.5 -22.5l-12 11
q17 30 37 47t43.5 24.5t51.5 6.5t61 -6l51 -8q29 0 47 19.5t18 50.5q0 21 -11 40.5t-28.5 32.5t-40 17.5t-44.5 -4.5l-26 -14l-12 12q9 19 25.5 30.5t37 15.5t42 -0.5t40.5 -17.5q-6 29 -22.5 51t-39.5 34t-51 12.5t-56 -13.5l-10 14q16 20 37.5 30t44.5 11.5t45.5 -7
t41.5 -26.5q-1 30 -15 56t-36 41.5t-50 18t-58 -15.5l-10 12q22 31 56 40t69 -2l44 -19v96l301 147q50 -11 94 -32t77 -51t52.5 -69t19.5 -87q0 -68 -24.5 -128.5t-73.5 -127.5l-81 -110q5 2 16.5 6.5t31.5 8t50.5 4t74.5 -5.5zM742 444q-24 66 -80 104t-127 38q-9 0 -20 -1
t-22 -4l-34 -6v-143q31 -21 67.5 -31.5t73.5 -9.5t73.5 14t68.5 39zM753 400l-5 20q-70 -47 -141 -51.5t-148 35.5v-124q73 46 140 38t128 -48q15 29 22 62t4 68zM439 179v389l-21 -8l-24 -11v-378q0 -35 -2 -60t-9 -45t-20 -35t-35 -28q36 3 57.5 14.5t33.5 33t16 53.5
t4 75z" />
    <glyph glyph-name="O" unicode="O" horiz-adv-x="714" 
d="M699 380q0 -64 -38.5 -133t-97 -126t-129 -94t-133.5 -37q-61 0 -113.5 24t-91 64.5t-60 95t-21.5 114.5q0 50 11 96q10 44 33 101l325 195q58 -9 115 -33t101 -62t71.5 -89.5t27.5 -115.5zM581 452q-29 56 -91 90.5t-135 46.5v-137q24 -21 53 -33t59.5 -12.5t60 10.5
t53.5 35zM591 266l9 14q3 14 4 33t-0.5 40t-5 41.5t-9.5 35.5q-27 -22 -59 -36t-64 -13q-29 0 -57.5 13.5t-53.5 35.5v-151q52 46 117 43q31 -2 61.5 -15.5t57.5 -40.5zM583 242q-22 28 -52 42.5t-62 15.5t-62.5 -11.5t-51.5 -39.5v-183q77 0 139 49t89 127zM333 66v525
l-51 3v-258q0 -39 -5 -64.5t-18 -45t-34.5 -37.5t-54.5 -43q68 -68 163 -80zM189 274v262q-47 -34 -72 -83.5t-25 -107.5q0 -100 63 -182q22 21 28 44t6 67z" />
    <glyph glyph-name="P" unicode="P" horiz-adv-x="718" 
d="M703 426v-307l-144 -129q-28 13 -80 32q-18 6 -42 11.5t-43 8.5v-174h-167v182q-55 0 -104 -15.5t-98 -46.5l-10 13q43 46 95 83.5t117 48.5q3 44 -8.5 80t-34 63t-53.5 45t-67 27l-5 15l168 117q0 57 -15.5 98t-65.5 41q-19 0 -33 -7l-35 -17l-14 16q27 30 60 48t71 18
q56 0 93 -36t37 -94l48 34v86h21v-72l120 82q59 -36 96 -66.5t57.5 -60t28 -59.5t7.5 -65zM603 421l1 10q0 61 -43 98.5t-116 74.5l-51 -34v-152q20 -14 47 -25.5t52 -11.5q29 0 58 11t52 29zM603 258v136q-30 -16 -55.5 -26t-55.5 -10q-19 0 -40 5.5t-58 27.5v-137
q28 15 53 24t54 9q19 0 48 -7.5t54 -21.5zM603 80v150q-25 17 -53 26.5t-50 9.5q-28 0 -54.5 -10t-51.5 -26v-91q53 0 102 -15.5t107 -43.5zM227 323v130l-91 -62l50 -30q10 -7 21 -17t20 -21zM325 -110h48v666l-48 -34v-632z" />
    <glyph glyph-name="Q" unicode="Q" horiz-adv-x="753" 
d="M720 67l18 -18l-94 -89l-141 104q-55 -35 -104 -56q-45 -18 -105 -18q-62 0 -113 24t-88 64.5t-57.5 93.5t-20.5 111q0 53 15.5 104t39.5 100l322 193q39 -5 70 -12t63 -20q44 -16 80.5 -44.5t63 -64t41 -76t14.5 -82.5q0 -29 -6 -56.5t-22 -57.5t-44 -65.5t-71 -78.5
l110 -83zM599 456q-13 26 -37.5 47t-55.5 37t-66 26.5t-71 14.5v-128q25 -17 55 -30t61 -13q63 0 114 46zM625 354q0 46 -16 82q-25 -19 -59 -33.5t-65 -14.5q-30 0 -55 8.5t-61 30.5v-145q23 20 53 32t61 12q68 0 129 -56q13 40 13 84zM605 246q-24 27 -55.5 42t-68.5 15
q-65 0 -112 -53v-177q76 0 139.5 48.5t96.5 124.5zM347 73v510l-53 2v-246q0 -39 -5 -64t-18 -44.5t-34 -39t-53 -47.5q21 -17 38.5 -28t35.5 -18.5t39 -13t50 -11.5zM196 259v270q-42 -32 -69.5 -81.5t-27.5 -101.5q0 -104 67 -186q18 21 24 42.5t6 56.5z" />
    <glyph glyph-name="R" unicode="R" horiz-adv-x="763" 
d="M733 101l15 -17l-103 -97q-19 18 -31 30.5t-20 27t-15 35t-16 53.5q-17 62 -53 110.5t-103 65.5l-19 -13v-189q19 -5 38.5 -14.5t38.5 -24.5l46 43l15 -16l-113 -108q-43 30 -94.5 45t-105.5 15q-101 0 -190 -50l-8 9q43 54 93 84t115 39q7 30 -4 63t-35.5 64t-60 57
t-77.5 41v14l173 121q0 24 -3.5 48t-13.5 43t-28 31t-46 12q-34 0 -68 -22l-10 11q23 28 56.5 46.5t71.5 18.5q64 0 100 -31t36 -91l179 121l152 -207l-148 -99q53 -26 75.5 -65t36 -81.5t30 -83.5t57.5 -72zM388 322l162 111l-121 172l-41 -28v-255zM314 126l52 -12v449
l-52 -36v-401zM219 315v145l-101 -70q31 -16 54.5 -34t46.5 -41z" />
    <glyph glyph-name="S" unicode="S" horiz-adv-x="732" 
d="M717 290q0 -48 -24 -90t-62.5 -77.5t-87 -64.5t-97.5 -53q-15 6 -46.5 18t-62.5 27q-71 -37 -119 -50q-44 -12 -84 -12q-20 0 -41 4.5t-38 14.5t-28.5 26t-11.5 39q0 24 11.5 42t30 30t42.5 18.5t48 6.5q39 0 81 -6l35 61h-68q-32 0 -61 6.5t-51.5 20t-35.5 34.5t-13 49
q0 39 22.5 64.5t61.5 41.5q0 40 16 74t41 63.5t56 54.5t61 48l195 -69l30 53l18 -12l-109 -192l16 1q47 3 94.5 -4t86.5 -26.5t65 -54t29 -86.5zM398 458l46 79q-62 33 -102.5 45.5t-74.5 12.5q-32 0 -59.5 -22t-27.5 -56q0 -39 27.5 -53.5t69.5 -14.5q61 0 121 9zM649 248
q0 31 -13.5 55.5t-37 41.5t-54 26t-63.5 9q-31 0 -57 -1t-48 -3l-36 -63q8 0 25.5 1.5t41.5 3.5l62 6q21 2 43.5 -2.5t41 -15t30.5 -27t12 -37.5q0 -22 -8 -39t-25 -32.5t-43.5 -31.5t-63.5 -37l71 -29q54 36 88 79t34 96zM314 310l36 63l-59 -5l-59 -2q-45 -2 -72.5 9
t-38.5 46q-15 -25 -18 -44t3 -32q10 -21 35 -30.5t52 -8.5zM513 203q0 17 -17.5 28.5t-36.5 10.5l-50 -3l-119 -14l-38 -66q49 -7 85 -17t85 -29q44 26 67.5 45t23.5 45zM307 59q-39 12 -83.5 23.5t-92.5 11.5q-36 0 -53.5 -12t-17.5 -30q0 -22 20 -32t39 -10q93 0 188 49z
" />
    <glyph glyph-name="T" unicode="T" horiz-adv-x="704" 
d="M673 237l16 -4q-13 -53 -43 -97t-71.5 -76t-92.5 -50t-106 -18q-62 0 -117 22.5t-96 62t-65 93.5t-24 117q0 95 48 168t137 134l-43 3q-127 0 -186 -128l-15 6q24 97 89.5 152t164.5 55q16 0 59 -6t91 -12.5t91 -12.5t59 -6q71 0 104 55l16 -6q-6 -63 -52 -102t-112 -35
l-38 2v-468q59 15 106 54t80 97zM465 82v475l-66 13v-252q0 -41 -11.5 -78.5t-35.5 -56.5l-76 -61q68 -44 143 -44q19 0 28.5 1t17.5 3zM299 250v338q-31 -15 -56 -41.5t-43 -60t-27.5 -71.5t-9.5 -77q0 -60 23.5 -109t68.5 -91q26 17 35 44t9 68z" />
    <glyph glyph-name="U" unicode="U" horiz-adv-x="763" 
d="M735 81l13 -19l-100 -84q-39 24 -54.5 52.5t-15.5 76.5q-69 -58 -130.5 -87.5t-140.5 -29.5q-56 0 -103 23t-81 61.5t-53 88.5t-19 104q0 125 56 204t176 135q2 1 -13.5 0t-40.5 -1.5t-55.5 0.5t-58.5 6q-21 2 -36 -7t-24 -25t-13.5 -37t-4.5 -42h-20l-1 15q-3 37 3 70
t20 57.5t36.5 39t53.5 14.5q35 0 75.5 -13t79.5 -22t72 -6t53 36h14v-258q16 -14 36 -21.5t41.5 -9t42.5 3.5t37 16v141l-44 35l-52 -53l-15 15l111 116l94 -70l47 49l18 -15q-18 -18 -29.5 -32t-18.5 -31t-10 -38t-3 -52v-353q0 -35 7 -48.5t23 -13.5zM580 294v103
q-35 -15 -60.5 -17.5t-44 1.5t-31 11.5t-21.5 13.5v-109q43 21 80 19t77 -22zM580 143v126q-41 23 -79.5 25t-77.5 -23v-202q43 5 82.5 24.5t74.5 49.5zM375 65l26 1v570q-41 -41 -41 -109v-247q0 -33 -15.5 -63t-36 -53.5t-41 -38.5t-30.5 -18q28 -21 65.5 -31.5
t72.5 -10.5zM355 621q-94 -48 -151.5 -127t-57.5 -180q0 -53 16.5 -100.5t53.5 -87.5q27 21 37 56.5t10 76.5v177q0 34 5 55.5t16 40t28.5 38.5t42.5 51z" />
    <glyph glyph-name="V" unicode="V" horiz-adv-x="646" 
d="M631 445q0 -72 -24.5 -135.5t-64 -119.5t-89 -106t-99.5 -97q-46 34 -101 36.5t-103 -36.5l-16 18q40 68 54 108.5t14 74.5q0 25 -10.5 49.5t-28.5 39.5t-41.5 17t-48.5 -17l-12 10q34 50 79 56t72 -39q0 31 -3 82t-15.5 99.5t-37 84t-67.5 35.5q-25 0 -37.5 -21.5
t-19.5 -50.5l-17 5q3 30 10.5 58t20 49t31.5 33.5t44 12.5q29 0 54 -12t45 -33t35.5 -49t24.5 -59l278 142q31 -54 52 -116t21 -119zM535 420q0 53 -15 100.5t-44 93.5l-189 -98l18 -107q0 -2 23 -7.5t57.5 -8t74.5 2.5t75 24zM535 397q-42 -30 -103.5 -33t-125.5 22
q0 -61 -15 -122q56 17 106.5 10.5t103.5 -31.5q15 39 24 77q4 18 7 39t3 38zM451 143l40 77q-17 9 -41.5 15.5t-50 9.5t-48.5 3t-36 -3l-31 -8l-21 -57q-11 -27 -25 -48l-62 -101q32 23 59.5 38t54.5 22t55.5 5t63.5 -14q13 16 24 31.5t18 29.5z" />
    <glyph glyph-name="W" unicode="W" horiz-adv-x="885" 
d="M869 426q-2 -69 -25.5 -128.5t-61.5 -112.5t-88 -101.5t-105 -96.5q-27 30 -57 41t-60 8t-60 -16.5t-57 -32.5q-33 34 -62 44t-58 5.5t-58.5 -19t-63.5 -30.5l-11 16q30 53 53 98.5t23 103.5q0 22 -9.5 44t-25.5 36.5t-37.5 17.5t-44.5 -13l-13 13q9 23 27 36t39 15.5
t41.5 -5t35.5 -27.5q1 53 -6 104.5t-21 92t-34 65.5t-46 25q-22 0 -34.5 -22t-12.5 -46l-22 3q3 26 9.5 50.5t18.5 44t31.5 31.5t47.5 12q54 0 89.5 -43.5t53.5 -107.5l216 155q48 -68 80 -151l215 149q37 -56 65.5 -122t27.5 -136zM764 414q-5 49 -21.5 101t-43.5 89
l-131 -89l9 -41l7 -60q44 -21 91 -21q39 0 56.5 7.5t32.5 13.5zM765 377l-1 14q-28 -14 -65 -17.5t-69 2.5l-46 15q0 -37 -7 -67t-25 -64q33 11 70 11q30 0 58 -9.5t56 -24.5q5 12 10 30t9.5 37.5t7 38.5t2.5 34zM482 422q-9 52 -28 101t-47 83l-137 -99q14 -50 14 -93
q21 -10 47 -17.5t47 -7.5q56 0 104 33zM692 152l35 64q-25 16 -54 25t-53 9q-44 0 -83 -21q-17 -28 -31.5 -49t-30.5 -41t-36 -41t-47 -49l14 7q25 12 48.5 24.5t52 21t65 10t86.5 -8.5q18 21 34 49zM485 373l-1 23q-21 -10 -49.5 -20.5t-52.5 -10.5q-57 0 -98 26l1 -11
q2 -26 -4.5 -58.5t-16.5 -67.5q43 17 83 17q26 0 52.5 -9.5t59.5 -27.5l19 70q4 16 5.5 33.5t1.5 35.5zM450 213q-22 13 -49.5 24.5t-51.5 11.5q-27 0 -48.5 -6.5t-47.5 -19.5l-48 -94q-7 -13 -12 -22l-10 -18t-11.5 -19t-15.5 -25q24 11 46 24t48.5 22.5t60.5 13t83 -3.5
l29 50q6 11 13.5 28.5t13.5 33.5z" />
    <glyph glyph-name="X" unicode="X" horiz-adv-x="601" 
d="M567 109l19 -20l-114 -102q-22 11 -37 21.5t-26 24.5t-20 32t-20 44l-71 167l-129 -289q-59 47 -140 74l40 88l123 -49l96 215h-185l35 76h116l-51 121q-14 33 -29 57.5t-35.5 35t-47 4t-62.5 -36.5l-14 11q20 43 54.5 72t84.5 29q55 0 83 -34t51 -90l52 -126l113 252
q56 -38 133 -74l-38 -80l-115 48l-84 -189h194l-35 -76h-118l74 -175l18 -40q11 -26 27.5 -27.5t33.5 12.5z" />
    <glyph glyph-name="Y" unicode="Y" horiz-adv-x="680" 
d="M665 421q0 -148 -68.5 -233t-215.5 -83l-206 3q-24 0 -48.5 -6.5t-43.5 -19.5t-31 -31.5t-12 -41.5q0 -38 26.5 -61.5t66.5 -23.5q18 0 53.5 10.5t74.5 22.5t74.5 22.5t54.5 10.5q22 0 45 -5.5t41 -17t29 -28t11 -37.5t-11 -35t-33 -14q-18 0 -30.5 12.5t-12.5 32.5l3 18
l9 16q4 6 5 12q0 6 -6.5 9.5t-14.5 3.5q-16 0 -50.5 -14.5t-73.5 -32.5t-74.5 -32.5t-53.5 -14.5q-31 0 -60 9.5t-50.5 26.5t-34.5 41.5t-13 54.5t13 55t35.5 42.5t51.5 27.5t61 10q0 36 -8.5 69t-25 57.5t-42 39.5t-58.5 15v15q44 8 76 -4t58 -32q0 66 -27.5 110t-91.5 44
l-15 -1l-4 16l25 11q39 6 62 -1t51 -26v36q0 66 -18.5 111.5t-74.5 45.5q-18 -3 -24.5 -5.5t-11.5 -5.5l-11 16q45 39 100 39q110 0 133 -110q60 37 106 58t95 21q44 0 80 -18.5t61.5 -49.5t39.5 -72.5t14 -87.5zM553 464q-12 54 -51.5 93.5t-93.5 39.5q-22 0 -33 -4
l-39 -15v-114q25 -22 49.5 -35t57.5 -13q30 0 59.5 13t50.5 35zM565 326l2 36l-1 43q0 14 -6 35q-28 -22 -55.5 -33.5t-58.5 -11.5q-61 0 -110 40v-137q22 17 46.5 27t55.5 10q66 0 122 -44zM555 266q-26 21 -54.5 34t-65.5 13q-27 0 -50 -10.5t-49 -30.5v-142q83 0 138 30
t81 106zM269 130h45v437l-45 -27v-410z" />
    <glyph glyph-name="Z" unicode="Z" horiz-adv-x="548" 
d="M516 131l17 -16l-101 -128q-92 47 -196 48t-207 -48l-14 19q24 22 48.5 54.5t46.5 72.5l83 152h-130l16 34h132l28 52h-138l16 36h144q41 55 87.5 107.5t105.5 111.5q-38 -18 -80 -32.5t-86.5 -20.5t-88.5 -1t-85 25l-56 -64l-18 15l111 130q42 -21 87.5 -31.5t92 -10
t91.5 11.5t85 32l13 -14q-41 -57 -78.5 -121.5t-73.5 -137.5h142l-16 -36h-142l-30 -52h149l-15 -34h-155q-36 -60 -86.5 -117.5t-113.5 -115.5q51 20 98 34.5t92 19t89 -3t87 -31.5z" />
    <glyph glyph-name="grave" unicode="`" 
d="M241 693l105 -120l-157 33l-35 87h87z" />
    <glyph glyph-name="a" unicode="a" horiz-adv-x="404" 
d="M346 472l13 -9q-12 -18 -19 -33t-11 -31.5t-5 -36t-1 -46.5v-191q0 -29 8.5 -45.5t33.5 -3.5l14 8l10 -13l-106 -84q-26 23 -40.5 48t-18.5 60l-132 -108q-33 26 -55 57t-22 69q0 59 30 104.5t64 82.5l-86 153q49 -2 83 9.5t60 31.5q21 -9 44 -20t44 -18.5t39.5 -9.5
t31.5 9zM173 282l51 -22v119l-169 56l74 -134zM160 67l64 52v121l-104 45l-15 -40q-9 -34 -13.5 -62.5t1.5 -53.5q8 -26 22 -47t45 -15z" />
    <glyph glyph-name="b" unicode="b" horiz-adv-x="381" 
d="M366 347v-274q-45 -16 -82.5 -36.5t-66.5 -49.5q-35 32 -82 53.5t-103 32.5v10q15 9 21 27.5t6 41.5v401q0 35 -8.5 55.5t-35.5 43.5l6 12q25 -7 38.5 -16.5t35.5 -26.5q44 47 113 59l3 -10q-35 -22 -44.5 -52.5t-9.5 -71.5v-171l142 119q21 -18 34 -32.5t20.5 -30.5
t10 -35.5t2.5 -48.5zM157 114l110 -47v266q0 36 -5 53t-25 34l-80 -68v-238z" />
    <glyph glyph-name="c" unicode="c" horiz-adv-x="306" 
d="M169 494l116 -65l-50 -73l-83 46v-304l86 -39l43 34l10 -13l-115 -93q-64 45 -150 56v12q17 12 22.5 30t5.5 46v203q0 27 -6.5 36.5t-32.5 13.5v12q42 12 81.5 38.5t72.5 59.5z" />
    <glyph glyph-name="d" unicode="d" horiz-adv-x="387" 
d="M367 484l5 -17q-14 -13 -18 -32t-4 -48v-319q-44 -16 -77 -34t-70 -47q-52 36 -95.5 55t-92.5 19v11q17 14 23 37.5t6 53.5v254q58 12 96 41l-125 94v115l302 -223q16 27 50 40zM146 120l106 -50v304l-81 60l-25 -19v-295z" />
    <glyph glyph-name="e" unicode="e" horiz-adv-x="346" 
d="M209 494l122 -157l-181 -150v-92l87 -44l71 49l10 -14l-145 -99q-36 21 -76 39.5t-78 24.5v10q21 12 28.5 34t7.5 58v193q0 39 -36 39l-4 10zM150 220l102 83l-102 131v-214z" />
    <glyph glyph-name="f" unicode="f" horiz-adv-x="267" 
d="M155 677l97 -24l-16 -78l-84 22v-123h66v-53h-66v-322l50 -38l31 24l14 -13l-105 -85q-28 28 -55 44.5t-65 29.5v11q20 11 26 32.5t6 56.5v260h-39v53h39v124z" />
    <glyph glyph-name="g" unicode="g" horiz-adv-x="421" 
d="M406 467v-105l-77 22v-231q0 -22 11.5 -47t25.5 -50t25.5 -48.5t11.5 -41.5q0 -39 -58 -67l-73 -35q-34 12 -59 18t-51 7t-58 -4.5t-80 -16.5l-9 10l115 136l-106 77v341q89 12 165 61l139 -68zM182 77l50 59v248l-111 41v-302zM328 -75l17 10q-44 29 -76 75t-37 97
l-130 -155q59 10 112 8t114 -35z" />
    <glyph glyph-name="h" unicode="h" horiz-adv-x="384" 
d="M218 668l-6 12q-74 -12 -116 -60q-22 20 -38 31t-35 19l-8 -13q27 -24 35 -45.5t8 -54.5v-468l-40 -33l84 -70l88 67l-32 36v268l76 61q21 -17 26.5 -32.5t5.5 -45.5v-240q0 -50 -8.5 -84t-28 -58.5t-52.5 -44t-83 -40.5l6 -18q10 4 25.5 10t30.5 12t27.5 11.5t17.5 7.5
q37 16 68.5 37.5t54.5 51t35 68.5t9 92v199q0 30 -2.5 50.5t-10 37t-21.5 30.5t-36 31l-140 -113v179q0 43 11 65.5t49 43.5z" />
    <glyph glyph-name="i" unicode="i" horiz-adv-x="232" 
d="M131 694l83 -3l-83 -113l-24 2zM205 86l12 -17l-104 -82q-22 25 -44.5 44t-50.5 38v9q15 6 23.5 19t8.5 47v255l-35 30l83 65l83 -68l-34 -31v-309l28 -25z" />
    <glyph glyph-name="j" unicode="j" horiz-adv-x="250" 
d="M150 693h85l-80 -115l-25 3zM215 409q-50 -68 -50 -151q0 -18 3 -43t7 -59l10 -96q0 -72 -38 -117.5t-115 -86.5l-6 15q74 49 74 130q0 10 -5 46t-10.5 76.5t-10.5 76.5t-5 46q0 58 7.5 86.5t18.5 54.5l-36 36l-33 -24l-11 15l106 79z" />
    <glyph glyph-name="k" unicode="k" horiz-adv-x="443" 
d="M418 87l10 -15l-106 -85q-7 8 -16 21.5t-13 26.5l-15 57l-127 -105q-20 23 -51.5 42.5t-67.5 31.5v14q21 8 26.5 24.5t5.5 45.5v395q0 41 -9 66t-40 46l6 12q23 -6 41.5 -16.5t34.5 -29.5q25 25 50.5 38t69.5 24l3 -14q-18 -12 -29 -22t-16.5 -22t-7 -27.5t-1.5 -39.5
v-184l127 123l94 -100l-107 -97q30 -28 44 -59.5t23 -62.5t17.5 -59.5t26.5 -49.5zM166 220l140 125l-66 71l-74 -71v-125zM215 65l60 50q-6 41 -20 67t-47 50l-42 -38v-94z" />
    <glyph glyph-name="l" unicode="l" horiz-adv-x="261" 
d="M232 81l14 -16l-95 -78q-48 54 -121 72v15q21 10 27.5 25.5t6.5 46.5v392q0 42 -8 67t-41 44l5 15q44 -18 78 -48q22 23 49.5 38.5t61.5 25.5l5 -16q-33 -24 -42.5 -49t-9.5 -74v-442l49 -34z" />
    <glyph glyph-name="m" unicode="m" horiz-adv-x="664" 
d="M637 83l12 -16l-96 -80q-21 15 -33.5 29t-19 30t-9 36.5t-2.5 49.5v248l-36 40l-72 -62v-267l36 -36l-82 -68l-84 68l32 36v244q0 29 -10.5 46.5t-29.5 35.5l-69 -59v-267l36 -36l-81 -68l-87 71l35 36v270q0 25 -9.5 37.5t-27.5 1.5l-13 -8l-12 18l104 81q35 -24 45 -47
t10 -67l135 114q33 -24 51.5 -51t18.5 -63l133 114l70 -77l39 38l13 -14q-26 -24 -36 -46.5t-10 -56.5v-222q0 -18 3.5 -31t17.5 -16z" />
    <glyph glyph-name="n" unicode="n" horiz-adv-x="459" 
d="M432 92l12 -20l-105 -85q-19 17 -31 32.5t-18.5 32t-8.5 36.5t-2 47v250l-39 40l-69 -57v-274l34 -36l-86 -71l-85 73l39 36v272q-1 15 -6.5 23.5t-13 12t-15 3.5t-11.5 -3l-12 15l99 75q30 -23 43.5 -45t13.5 -57l124 102l72 -72l47 45l14 -16q-16 -15 -26 -28
t-15.5 -27t-7.5 -32t-2 -43v-207q0 -9 5.5 -24.5t18.5 -15.5z" />
    <glyph glyph-name="o" unicode="o" horiz-adv-x="357" 
d="M184 494q74 -51 158 -72v-331v-25q-44 -17 -76 -34t-69 -45q-42 32 -88.5 54t-93.5 22v12l17 17q2 2 5 10t6 42v268q78 25 141 82zM140 113l104 -45v303l-104 45v-303z" />
    <glyph glyph-name="p" unicode="p" horiz-adv-x="399" 
d="M384 328v-245q-25 -13 -43 -22t-33 -19t-28.5 -21.5t-30.5 -29.5q-29 18 -47 27.5t-28 9.5l-2.5 -18.5t1 -43t15.5 -50.5t40 -41l-9 -18q-30 9 -55 24t-51 38q-13 -13 -35 -24.5t-46 -21.5l-4 12q29 23 40 46t11 66v58l-64 11v34l64 9v247q0 21 -5.5 38.5t-25.5 18.5
l-20 -9l-10 13l96 77q60 -44 60 -106l112 106q27 -20 46 -36t30.5 -34.5t16.5 -41t5 -54.5zM289 73v248v19t-4.5 21.5t-15.5 23.5t-34 26l-61 -54v-249q31 -4 60 -11.5t55 -23.5z" />
    <glyph glyph-name="q" unicode="q" horiz-adv-x="386" 
d="M371 -114l-7 -14q-20 6 -40 17l-40 27q-20 -23 -51 -37.5t-67 -21.5l-3 15q21 11 33 22.5t18 26t8 34.5t2 47v89l-127 -104q-28 23 -44.5 36.5t-24.5 28.5t-10.5 35.5t-2.5 56.5v266q41 12 79.5 34t68.5 49q26 -19 50 -35t45 -26t45 -15t48 -5v-15q-23 -12 -27 -33
l-1 -361v-37t3.5 -29t13.5 -25.5t31 -25.5zM159 63l65 53v240l-108 53v-251q0 -20 1 -33t5.5 -23t13 -18.5t23.5 -20.5z" />
    <glyph glyph-name="r" unicode="r" horiz-adv-x="362" 
d="M275 496l72 -89l-68 -63l-59 73l-40 -35v-281l49 -36l46 36l14 -16l-121 -98q-31 30 -56 46.5t-66 26.5v11q20 12 27 32.5t7 47.5v201q3 52 -24 68l-29 -25l-12 14l99 85q49 -27 70 -80z" />
    <glyph glyph-name="s" unicode="s" horiz-adv-x="417" 
d="M402 528q0 -17 -9.5 -37.5t-33.5 -54.5l-84 -117l102 -59v-195q-75 -21 -138 -78q-59 39 -111 39q-26 0 -50 -9t-50 -30l-13 11l127 180l-93 51v177q85 27 131 88q70 -36 130 -36q20 0 34 8.5t15 23.5q0 12 -11 23t-11 28q0 11 7 20t22 9q36 0 36 -42zM196 254l95 133
l-40 -3q-27 -2 -54 7.5t-50 24.5v-134zM276 72v135l-58 32l-106 -150l37 10q32 9 66 -2t61 -25z" />
    <glyph glyph-name="t" unicode="t" horiz-adv-x="264" 
d="M240 474v-54h-84v-319l48 -34l31 25l14 -17l-106 -88q-47 52 -117 71v13q18 12 25 32t7 45v272h-43v16l141 187v-149h84z" />
    <glyph glyph-name="u" unicode="u" horiz-adv-x="457" 
d="M428 81l14 -17l-100 -77q-34 26 -47.5 51.5t-13.5 68.5l-131 -120q-24 22 -51 42.5t-58 34.5v13q28 11 28 48v263l-21 16l-20 -16l-13 16l102 90l83 -73l-36 -30v-283l47 -37l70 64v257l-35 29l82 73l84 -73l-36 -29v-264q0 -57 29 -57q10 0 23 10z" />
    <glyph glyph-name="v" unicode="v" horiz-adv-x="382" 
d="M367 314v-241q-88 -24 -153 -86q-41 36 -85 57.5t-97 21.5v11q18 8 24 23t6 39v192q0 17 -7 39.5t-15.5 45t-16 42.5t-8.5 31q0 42 28.5 74.5t73.5 56.5l10 -14q-21 -19 -34.5 -29.5t-13.5 -34.5q0 -12 13 -32.5t28 -43t28 -44.5t13 -37l129 109q28 -24 43.5 -40.5
t22.5 -35t8.5 -42.5t2.5 -62zM269 68v247q0 24 -0.5 38t-4 24.5t-11.5 19.5t-23 23l-69 -58v-247l52 -21q8 -3 23 -9.5t33 -16.5z" />
    <glyph glyph-name="w" unicode="w" horiz-adv-x="597" 
d="M582 329v-259q-45 -14 -80.5 -32t-69.5 -51q-28 21 -57.5 34t-58.5 15t-56 -9.5t-50 -39.5q-37 35 -83 54.5t-94 19.5v10q23 10 30.5 21.5t7.5 33.5v208q0 26 -8.5 48.5t-19.5 43t-19.5 38.5t-8.5 35q0 39 29 68t75 55l9 -15q-22 -16 -33.5 -30.5t-11.5 -34.5
q0 -14 13.5 -34t29 -42t29 -43.5t13.5 -38.5l127 110q66 -37 76 -111l132 111q24 -18 39.5 -34.5t24 -35t12 -41.5t3.5 -54zM374 114l109 -44v251q0 20 -1 33.5t-5.5 24t-12.5 19.5t-21 21l-69 -58v-247zM168 108l108 -44v261q0 19 -1 31.5t-5 22.5t-12 19t-22 21l-68 -59
v-252z" />
    <glyph glyph-name="x" unicode="x" horiz-adv-x="452" 
d="M423 86l14 -18l-99 -81q-51 30 -84 97l-54 109l-96 -206l-89 52l37 85l74 -38l62 133q-12 27 -26.5 59.5t-31 61.5t-34 48.5t-36.5 19.5q-15 0 -33 -18l-12 15l101 89q41 -21 69.5 -61t56.5 -98l74 159l101 -51l-43 -84l-77 41l-43 -92q10 -24 25.5 -61.5t33.5 -73.5
t38 -64.5t40 -35.5l15 3z" />
    <glyph glyph-name="y" unicode="y" horiz-adv-x="398" 
d="M383 325q1 -45 -11 -80.5t-32.5 -64.5t-47.5 -51.5t-57 -41.5q-35 -22 -69 -40t-62 -35.5t-45 -35.5t-17 -41q0 -26 21.5 -42.5t50.5 -16.5q17 0 33 7.5t30 17t25 17t17 7.5t13 -6t7 -15q0 -12 -12.5 -21t-31 -15.5t-40 -9.5t-39.5 -3q-42 0 -70.5 20t-28.5 61
q0 12 10 35t22 49t22 50t10 37v240q1 36 -4 50t-19 14l-30 -16l-13 14l102 84q38 -22 51 -45t13 -67l137 109q32 -31 48.5 -74.5t16.5 -90.5zM286 287q0 66 -38 122l-68 -54v-268q46 32 76 86.5t30 113.5z" />
    <glyph glyph-name="z" unicode="z" horiz-adv-x="297" 
d="M282 160q0 -33 -31.5 -65t-69.5 -61.5t-69.5 -55.5t-31.5 -47q0 -16 8.5 -27.5t24.5 -11.5l33 6q9 2 13.5 -3t4.5 -9q0 -11 -9.5 -17t-23.5 -6q-29 0 -51.5 19.5t-22.5 48.5q0 15 18.5 42t40.5 56t40.5 57t18.5 44q0 34 -18.5 57t-52.5 23q-28 0 -41 -7t-23 -13l-12 11
l139 147l-90 73l-49 -35l-13 16l122 91l53 -44q29 -35 60 -22l8 -11l-127 -134l14 2q28 4 52.5 -5.5t43.5 -27.5t30 -42t11 -49z" />
    <glyph glyph-name="quotesinglbase" unicode="&#x201a;" horiz-adv-x="238" 
d="M118 680l72 -70q-12 -54 -47 -96.5t-87 -63.5l-8 21q22 17 33.5 31.5t11.5 33.5q0 22 -15 40l-30 31z" />
    <glyph glyph-name="quotedblbase" unicode="&#x201e;" horiz-adv-x="348" 
d="M250 123l65 -63q-12 -48 -42 -87t-78 -57l-8 19q19 13 28.5 25.5t11.5 33.5q0 18 -8 29l-32 35zM97 123l65 -63q-12 -48 -42 -87t-78 -57l-8 19q16 14 28 26.5t12 32.5q0 17 -16 36l-24 28z" />
    <glyph glyph-name="circumflex" unicode="&#x2c6;" 
d="M239 714l166 -95l-63 -65l-146 79l-78 -79l-22 12z" />
    <glyph glyph-name="perthousand" unicode="&#x2030;" horiz-adv-x="770" 
d="M736 167q0 -57 -27.5 -104.5t-77.5 -75.5q-50 22 -81.5 61t-31.5 93q0 52 28.5 94.5t77.5 76.5q48 -15 80 -55.5t32 -89.5zM251 495q0 -58 -27.5 -104.5t-77.5 -74.5q-50 21 -81.5 60.5t-31.5 92.5q0 51 29.5 95t76.5 76q47 -15 79.5 -55t32.5 -90zM404 634l32 -16
l-322 -625l-32 17zM484 167q0 -56 -27.5 -105t-77.5 -75q-50 21 -81.5 60.5t-31.5 93.5q0 52 28.5 94.5t77.5 76.5q48 -15 80 -55.5t32 -89.5zM690 116q0 48 -27 83t-76 53q-21 -34 -21 -77q0 -46 29.5 -80.5t72.5 -49.5q22 29 22 71zM205 444q0 49 -27 84.5t-76 51.5
q-21 -34 -21 -76q0 -44 29.5 -80t72.5 -51q22 34 22 71zM437 116q0 49 -28 85t-75 51q-21 -36 -21 -77q0 -46 29.5 -80.5t73.5 -49.5q21 30 21 71z" />
    <glyph glyph-name="quoteleft" unicode="&#x2018;" horiz-adv-x="194" 
d="M161 538l-63 -65l-65 63q12 50 42 87.5t78 56.5l8 -19q-43 -26 -41 -60.5t41 -62.5z" />
    <glyph glyph-name="quoteright" unicode="&#x2019;" horiz-adv-x="194" 
d="M96 680l65 -63q-12 -48 -42 -87t-78 -57l-8 19q25 18 37 42t-13 53l-24 28z" />
    <glyph glyph-name="quotedblleft" unicode="&#x201c;" horiz-adv-x="348" 
d="M284 572l31 -34l-63 -65l-65 63q12 50 42 87.5t78 56.5l8 -19q-29 -21 -38 -43.5t7 -45.5zM162 538l-63 -65l-65 63q12 50 42 87.5t78 56.5l8 -19q-43 -26 -41 -60.5t41 -62.5z" />
    <glyph glyph-name="quotedblright" unicode="&#x201d;" horiz-adv-x="348" 
d="M250 680l65 -63q-12 -48 -42 -87t-78 -57l-8 19q25 14 35 38t-3 50l-32 35zM97 680l65 -63q-12 -48 -42 -87t-78 -57l-8 19q25 18 37 42t-13 53l-24 28z" />
    <glyph glyph-name="bullet" unicode="&#x2022;" horiz-adv-x="600" 
d="M392 286q0 -39 -28 -67.5t-70 -28.5q-39 0 -67.5 28t-28.5 68q0 39 28 67.5t68 28.5t69 -27.5t29 -68.5z" />
    <glyph glyph-name="nonbreakingspace" unicode="&#xa0;" horiz-adv-x="250" 
 />
    <glyph glyph-name="section" unicode="&#xa7;" horiz-adv-x="575" 
d="M537 220q0 -45 -27.5 -79.5t-73.5 -49.5q52 -43 52 -103q0 -34 -15.5 -62t-41 -47.5t-59 -30t-69.5 -10.5q-88 0 -141 47.5t-53 135.5h83q0 -49 27.5 -79.5t82.5 -30.5q36 0 65 20t29 55q0 52 -83 96l-161 83q-86 54 -86 129q0 46 27.5 80t72.5 51q-45 39 -45 93
q0 33 15 59t40.5 44t58 27.5t67.5 9.5q81 0 133 -46t52 -126h-84q0 45 -26.5 73.5t-73.5 28.5q-36 0 -63.5 -18.5t-27.5 -53.5q0 -44 81 -86l159 -81q85 -55 85 -129zM455 208q0 22 -12.5 38t-44.5 37q-13 9 -37.5 23.5t-51.5 29.5t-53 27.5t-41 17.5q-30 -8 -48.5 -29.5
t-18.5 -49.5q0 -18 24.5 -41.5t60.5 -47.5t77.5 -45.5t74.5 -35.5q27 6 48.5 27.5t21.5 48.5z" />
    <glyph glyph-name="FLW168" unicode="&#xa8;" horiz-adv-x="637" 
d="M202 845l72 -72l-72 -72l-72 72zM454 851l72 -72l-72 -72l-72 72zM610 181l7 -9q-45 -77 -118.5 -126t-161.5 -49q-67 0 -125 26.5t-100.5 72t-67 105t-24.5 125.5q0 110 54.5 184.5t160.5 132.5l9 -16q-58 -38 -100.5 -97t-42.5 -132q0 -53 13 -98.5t42 -89.5
q24 22 30.5 37.5t6.5 52.5v231l196 156q52 -25 98 -39t95 -14l14 1l6 -15l-141 -142l115 -3l-53 -92l-162 5v-294q67 0 130 22.5t119 64.5zM361 407l142 143q-38 6 -74 19t-68 32v-194zM340 96v516l-52 -43v-204q0 -33 -6.5 -54t-21 -37.5t-37 -34.5t-54.5 -45
q62 -80 171 -98z" />
    <glyph glyph-name="copyright" unicode="&#xa9;" horiz-adv-x="777" 
d="M733 334q0 -71 -27 -134t-73.5 -110t-109.5 -74.5t-134 -27.5t-134 27.5t-110 74.5t-74.5 110t-27.5 134t27.5 134t74.5 110t110 74t134 27t133.5 -27.5t109.5 -74.5t74 -110t27 -133zM680 334q0 59 -23 113t-62.5 95t-92.5 65t-113 24t-113.5 -24t-93.5 -64.5t-63 -94.5
t-23 -114t23 -114t63 -94.5t93 -64.5t114 -24q60 0 112.5 24t92.5 65t63 95t23 113zM518 296h53q0 -36 -14 -66t-38 -52t-57 -34t-72 -12q-42 0 -77 15t-60 42t-39 64t-14 80t13.5 81t38.5 65.5t60.5 43.5t78.5 16q67 0 117.5 -37t56.5 -103h-52q-9 40 -42.5 61.5
t-80.5 21.5q-58 0 -91 -44t-33 -104q0 -61 32.5 -102.5t91.5 -41.5q50 0 85.5 27t42.5 79z" />
    <glyph glyph-name="FLW170" unicode="&#xaa;" horiz-adv-x="680" 
d="M30 315q0 -66 24.5 -125.5t67 -105t100.5 -72t125 -26.5q88 0 161.5 49t118.5 126l-7 9q-56 -42 -119 -64.5t-130 -22.5v241h222l53 91h-175l141 194l-6 15q-16 -13 -45 -10t-60 13.5t-59.5 24.5t-42.5 24l-196 -156v-231q0 -37 -6.5 -52.5t-30.5 -37.5q-29 44 -42 89.5
t-13 98.5q0 73 42.5 132t100.5 97l-9 16q-106 -58 -160.5 -132.5t-54.5 -184.5zM179 183q32 24 54.5 41t37 35t21 40t6.5 55v204l52 43v-516q-109 18 -171 98zM513 539l-142 -195v246q32 -19 68 -32t74 -19z" />
    <glyph glyph-name="guillemotleft" unicode="&#xab;" horiz-adv-x="441" 
d="M360 468l28 -25l-127 -155l123 -173l-57 -57l-139 195zM205 468l28 -25l-127 -155l123 -173l-57 -57l-139 195z" />
    <glyph glyph-name="FLW175" unicode="&#xaf;" horiz-adv-x="576" 
d="M546 673l10 -17l-15 -4q-39 -10 -57.5 -32.5t-18.5 -65.5q0 -20 5.5 -70t12 -105t12 -103t5.5 -65q0 -90 -43 -157q-42 -67 -128 -67q-11 0 -43.5 8.5t-68.5 19.5t-68 19.5t-43 8.5q-24 0 -41.5 -14t-32.5 -39l-12 4q14 49 54 72t82 39.5t74.5 37t32.5 64.5q0 27 -5 53
t-16.5 46.5t-29 32.5t-41.5 12q-20 0 -35 -6.5t-33 -22.5l-9 6q16 33 44 56.5t67 23.5l29 -4q0 129 98 224l-51 -18q-24 -8 -58 -0.5t-67 7.5q-47 0 -71 -51l-11 2q5 47 37 79.5t79 32.5q9 0 26 -3.5t37 -7t40.5 -7t35.5 -3.5q38 0 72 17l9 -11q-88 -76 -88 -189
q0 -17 3.5 -55t7.5 -80t7.5 -79.5t3.5 -54.5q0 -58 -32.5 -83.5t-89.5 -25.5l64 -54q26 -23 56 -23q38 0 58 26t20 65q0 15 -0.5 30t-3.5 43t-9 75.5t-17 127.5l-4 71q-5 89 37.5 145.5t122.5 68.5zM287 845l62 -63l-62 -63l-63 63zM446 846l62 -63l-62 -63l-63 63z" />
    <glyph glyph-name="FLW178" unicode="&#xb2;" horiz-adv-x="566" 
d="M541 673l10 -17l-15 -4q-39 -10 -57.5 -32.5t-18.5 -65.5q0 -20 5.5 -70t12 -105t12 -103t5.5 -65q0 -90 -43 -157q-42 -67 -128 -67q-11 0 -43.5 8.5t-68.5 19.5t-68 19.5t-43 8.5q-24 0 -41.5 -14t-32.5 -39l-12 4q14 49 54 72t82 39.5t74.5 37t32.5 64.5q0 27 -5 53
t-16.5 46.5t-29 32.5t-41.5 12q-20 0 -35 -6.5t-33 -22.5l-9 6q17 33 44.5 56.5t66.5 23.5l29 -4q0 129 98 224l-51 -18q-24 -8 -58 -0.5t-67 7.5q-47 0 -71 -51l-11 2q5 47 37 79.5t79 32.5q9 0 26 -3.5t37 -7t40.5 -7t35.5 -3.5q38 0 72 17l9 -11q-88 -76 -88 -189
q0 -17 3.5 -55t7.5 -80t7.5 -79.5t3.5 -54.5q0 -58 -32.5 -83.5t-89.5 -25.5l64 -54q26 -23 56 -23q38 0 58 26t20 65q0 15 -0.5 30t-3.5 43t-9 75.5t-17 127.5l-4 71q-5 89 37.5 145.5t122.5 68.5z" />
    <glyph glyph-name="FLW179" unicode="&#xb3;" horiz-adv-x="262" 
d="M146 694l83 -3l-83 -113l-24 2zM220 86l12 -17l-104 -82q-22 25 -44.5 44t-50.5 38v9q15 6 23.5 19t8.5 47v255l-35 30l83 65l83 -68l-34 -31v-309l28 -25z" />
    <glyph glyph-name="periodcentered" unicode="&#xb7;" horiz-adv-x="490" 
d="M245 309l72 -72l-72 -72l-72 72z" />
    <glyph glyph-name="FLW184" unicode="&#xb8;" horiz-adv-x="363" 
d="M92 670l72 -72l-72 -72l-72 72zM263 673l72 -72l-72 -72l-72 72zM221 494l122 -157l-181 -150v-92l87 -44l71 49l10 -14l-145 -99q-36 21 -76 39.5t-78 24.5v10q21 12 28.5 34t7.5 58v193q0 39 -36 39l-4 10zM162 220l102 83l-102 131v-214z" />
    <glyph glyph-name="FLW186" unicode="&#xba;" horiz-adv-x="316" 
d="M20 396v-12q13 -2 26 -19t13 -31v-203q0 -40 -6 -56t-22 -20v-12q86 -11 150 -56l115 93l-10 13l-43 -34l-86 39v88q4 -4 7.5 -5.5t14.5 -9.5l115 93l-10 13l-43 -34l-84 43v116l83 -46l50 73l-116 65q-33 -33 -72.5 -59.5t-81.5 -38.5z" />
    <glyph glyph-name="guillemotright" unicode="&#xbb;" horiz-adv-x="441" 
d="M268 468l140 -195l-173 -215l-27 25l127 154l-124 174zM113 468l140 -195l-173 -215l-27 25l127 154l-124 174z" />
    <glyph glyph-name="FLW188" unicode="&#xbc;" horiz-adv-x="250" 
d="M150 693h85l-80 -115l-25 3zM215 409q-50 -68 -50 -151q0 -18 3 -43t7 -59l10 -96q0 -72 -38 -117.5t-115 -86.5l-6 15q74 49 74 130q0 10 -5 46t-10.5 76.5t-10.5 76.5t-5 46q0 58 7.5 86.5t18.5 54.5l-36 36l-33 -24l-11 15l106 79z" />
    <glyph glyph-name="FLW189" unicode="&#xbd;" horiz-adv-x="732" 
d="M717 290q0 -48 -24 -90t-62.5 -77.5t-87 -64.5t-97.5 -53q-15 6 -46.5 18t-62.5 27q-71 -37 -119 -50q-44 -12 -84 -12q-20 0 -41 4.5t-38 14.5t-28.5 26t-11.5 39q0 24 11.5 42t30 30t42.5 18.5t48 6.5q39 0 81 -6l35 61h-68q-32 0 -61 6.5t-51.5 20t-35.5 34.5t-13 49
q0 39 22.5 64.5t61.5 41.5q0 40 16 74t41 63.5t56 54.5t61 48l195 -69l30 53l18 -12l-109 -192l16 1q47 3 94.5 -4t86.5 -26.5t65 -54t29 -86.5zM398 458l46 79q-62 33 -102.5 45.5t-74.5 12.5q-32 0 -59.5 -22t-27.5 -56q0 -39 27.5 -53.5t69.5 -14.5q61 0 121 9zM649 248
q0 31 -13.5 55.5t-37 41.5t-54 26t-63.5 9q-31 0 -57 -1t-48 -3l-36 -63q8 0 25.5 1.5t41.5 3.5l62 6q21 2 43.5 -2.5t41 -15t30.5 -27t12 -37.5q0 -22 -8 -39t-25 -32.5t-43.5 -31.5t-63.5 -37l71 -29q54 36 88 79t34 96zM314 310l36 63l-59 -5l-59 -2q-45 -2 -72.5 9
t-38.5 46q-15 -25 -18 -44t3 -32q10 -21 35 -30.5t52 -8.5zM513 203q0 17 -17.5 28.5t-36.5 10.5l-50 -3l-119 -14l-38 -66q49 -7 85 -17t85 -29q44 26 67.5 45t23.5 45zM307 59q-39 12 -83.5 23.5t-92.5 11.5q-36 0 -53.5 -12t-17.5 -30q0 -22 20 -32t39 -10q93 0 188 49z
" />
    <glyph glyph-name="FLW190" unicode="&#xbe;" horiz-adv-x="417" 
d="M402 528q0 -17 -9.5 -37.5t-33.5 -54.5l-84 -117l102 -59v-195q-75 -21 -138 -78q-59 39 -111 39q-26 0 -50 -9t-50 -30l-13 11l127 180l-93 51v177q85 27 131 88q70 -36 130 -36q20 0 34 8.5t15 23.5q0 12 -11 23t-11 28q0 11 7 20t22 9q36 0 36 -42zM196 254l95 133
l-40 -3q-27 -2 -54 7.5t-50 24.5v-134zM276 72v135l-58 32l-106 -150l37 10q32 9 66 -2t61 -25z" />
    <glyph glyph-name="FLW191" unicode="&#xbf;" horiz-adv-x="302" 
d="M254 86l12 -17l-104 -82q-22 25 -44.5 44t-50.5 38v9q15 6 23.5 19t8.5 47v255l-35 30l83 65l83 -68l-34 -31v-309l28 -25zM65 669l72 -72l-72 -72l-72 72zM236 673l72 -72l-72 -72l-72 72z" />
    <glyph glyph-name="Agrave" unicode="&#xc0;" horiz-adv-x="635" 
d="M609 97l16 -18l-113 -96q-20 13 -32.5 25.5t-20 27.5t-10 34t-2.5 46l-168 -133l-94 61q-30 20 -56 29t-45 9q-24 0 -21.5 -15t9.5 -33t9 -33t-24 -15q-15 0 -24.5 13t-9.5 30q0 25 8 41l116 171q-28 18 -52 40.5t-41 49.5q-34 53 -34 118q0 47 22 89.5t57 74.5t80 51
t90 19q33 0 60 -5t52 -15t51 -25t56 -35q43 48 104 76l11 -17q-45 -26 -61.5 -53t-15.5 -73l1 -37l16 -339q2 -39 4 -62t25 -23q11 0 15 4zM208 292h230l-11 238q-15 15 -33 27zM347 528l28 41q-29 18 -62 24.5t-67 6.5q-35 0 -68.5 -12.5t-60 -34.5t-43 -51.5t-16.5 -63.5
q0 -53 26.5 -96.5t76.5 -78.5l136 195q-51 22 -80.5 11t-44.5 -32l-18 8q10 25 28.5 47t58.5 32q41 11 106 4zM349 68l95 75l-2 78h-283l-39 -56z" />
    <glyph glyph-name="Aacute" unicode="&#xc1;" horiz-adv-x="758" 
d="M434 -14q-43 27 -89 43.5t-94 16.5q-53 0 -107 -17q-9 -3 -16 -14.5t-11 -28t-5 -34t2 -32.5q0 -16 -13 -16q-7 0 -16.5 4.5t-18 11t-14.5 13t-6 9.5q0 17 20.5 44.5t45 57t45 57t20.5 45.5q0 14 -14.5 30t-28.5 16q-15 0 -30 -18t-19 -29h-18q0 51 29 77t79 26
q0 38 -16 66t-57 28t-59 -41l-19 4q6 40 28 71q10 13 28.5 21.5t45.5 8.5q20 0 42 -6q0 36 6 63t20.5 49.5t38 43t59.5 44.5q-21 -7 -53.5 -13t-47.5 -6q-24 0 -38.5 6.5t-34.5 6.5q-28 0 -49 -14.5t-26 -39.5h-23q6 59 38 97.5t89 38.5q31 -10 69 -19t70 -9q65 0 129 30
l16 -23q-44 -20 -75 -39t-51 -43.5t-29 -57.5t-9 -79v-175q0 -33 -2.5 -56t-10 -41.5t-21.5 -36.5t-38 -40q71 27 99.5 69t28.5 119v145q0 83 17.5 124.5t63.5 65.5q13 7 32 16q13 7 25.5 12.5t24.5 9.5l87 32l124 -52l-68 -61l-128 61q-48 -17 -63.5 -44t-15.5 -81v-183
q0 -44 -7 -74.5t-24 -54.5t-44.5 -44t-68.5 -43l47 9h13q14 0 32 -1t35.5 -3.5t31.5 -5.5t20 -7v442h25v-120l99 78l142 -73v-25q-8 -5 -13.5 -13t-5.5 -20v-266q-78 -11 -147 -38t-123 -75zM482 290q27 -10 61.5 -11t62.5 13v76l-87 44l-37 -26v-96zM606 198v70
q-38 -10 -63.5 -10t-60.5 10v-70l30 6q38 4 58 1t36 -7zM523 75l83 31v68q-15 5 -35 8.5t-57 -0.5q-9 -1 -14 -2t-18 -6v-80l21 -9z" />
    <glyph glyph-name="Acircumflex" unicode="&#xc2;" horiz-adv-x="773" 
d="M723 359v-14q-11 -6 -14.5 -16t-3.5 -26v-200q-77 -11 -147 -40t-124 -77q-43 27 -89 43.5t-94 16.5q-21 0 -48.5 -3t-52.5 -11.5t-42.5 -22.5t-17.5 -36q0 -10 8.5 -23.5t8.5 -21.5q0 -11 -7.5 -20t-19.5 -9q-15 0 -24.5 13t-9.5 30t20.5 44.5t45 57t45 57t20.5 45.5
t-14 30.5t-30 12.5q-21 0 -31.5 -12.5t-16.5 -31.5h-18q0 51 29 77t79 26q0 38 -16 66t-57 28t-59 -41l-19 4q6 40 28.5 70.5t60.5 30.5l55 -6q0 36 6 63t20.5 49.5t38 43t59.5 44.5l-50 -13q-33 -9 -54.5 -8t-37 5.5t-27.5 10t-25 5.5q-24 0 -36.5 -15t-18.5 -45h-23
q6 59 38 97.5t89 38.5q35 0 69.5 -8.5t68.5 -13.5t66.5 -2t63.5 26l16 -23q-44 -20 -75 -39t-51 -43.5t-29 -57.5t-9 -79v-175q0 -33 -2.5 -56t-10 -41.5t-21.5 -36.5t-38 -40q71 27 99.5 69t28.5 119v145q0 51 6 83t19 54t35 37t53 32l133 59l140 -189l-107 -79zM606 292
v19l-88 44l-36 -27v-38q27 -10 61.5 -11t62.5 13zM482 354l142 106l-123 168q-48 -17 -63.5 -44t-15.5 -81v-183q0 -44 -7 -74.5t-24 -54.5t-44.5 -44t-68.5 -43l47 9q30 2 50 1.5t34.5 -2.5t26 -5t24.5 -6v373h22v-120zM606 198v70q-38 -10 -63.5 -10t-60.5 10v-70
q0 8 16 11t37 3t41.5 -4t29.5 -10zM523 75l83 31v68q-7 4 -22.5 9t-34 7t-36.5 -1t-31 -15v-80z" />
    <glyph glyph-name="Atilde" unicode="&#xc3;" horiz-adv-x="547" 
d="M493 691l112 -105l-17 -18l-45 41q-52 -47 -116.5 -57t-134.5 3q-18 3 -50 13q42 -36 73.5 -66t51.5 -61t30 -65t10 -77l-7 -86l-6 -89q-3 -48 27 -69.5t79 -27.5l-11 -23q-84 0 -135 43t-51 124l6 81q2 28 4.5 49.5t2.5 35.5q0 155 -137 247q44 -60 64 -112t20 -116
l-7 -97q-2 -31 -4.5 -55.5t-2.5 -41.5q0 -47 21 -78.5t64 -64.5l-9 -15q-64 22 -107 88q-27 41 -42 83.5t-13 79.5l2 36q-32 -9 -65.5 2t-52.5 39l12 9q20 -14 43 -14q39 0 56.5 26t17.5 64q-10 -7 -33 -7q-40 0 -71 21t-52 56l10 11q24 -22 43.5 -36t32.5 -16
q39 -5 51.5 17.5t12.5 44.5q0 35 -32 77t-103 86l12 20q74 -45 148 -62q38 -9 77.5 -11.5t78.5 3.5t75 23t67 47z" />
    <glyph glyph-name="Adieresis" unicode="&#xc4;" horiz-adv-x="748" 
d="M698 292l5 -203l-146 -102q-81 20 -143.5 29t-118 6t-108 -19.5t-114.5 -46.5l-13 19l114 69q38 23 66 44.5t46 46t26.5 54t8.5 69.5v128q2 20 1 35t0.5 31t8 36t22.5 48q-52 -14 -71.5 -51.5t-19.5 -90.5v-113q0 -34 -2.5 -59.5t-10.5 -47.5t-22.5 -41t-39.5 -39
l-68 -56l-72 -49l-13 18q52 34 85 69.5t33 80.5q0 30 -19.5 55.5t-50.5 25.5q-24 0 -48 -24l-14 10q19 42 59 63.5t87 -0.5q0 52 4 87.5t17.5 62t40 49t71.5 47.5l-85 -3q-97 -4 -140 23.5t-43 113.5h13q13 -29 35 -38t55 -7l267 7q100 2 160.5 -26t96.5 -109q21 -46 30 -93
t10 -109zM592 362q0 93 -40 134.5t-133 41.5v-176l42 -22q32 -17 67.5 -7t63.5 29zM602 217l-8 118l-47 -21q-31 -14 -64 -5.5t-64 26.5v-120l45 22q28 13 66 5t72 -25zM397 111v427l-7 1l-8 -1q-24 -32 -30.5 -69t-6.5 -83v-115q0 -31 -2.5 -55t-10 -44t-20 -38t-32.5 -37
q64 14 117 14zM605 77l-3 112q-47 31 -92.5 34t-90.5 -32v-80q15 -1 25.5 -1t27.5 -2t47.5 -9t85.5 -22z" />
    <glyph glyph-name="Aring" unicode="&#xc5;" horiz-adv-x="637" 
d="M610 181l7 -9q-45 -77 -118.5 -126t-161.5 -49q-67 0 -125 26.5t-100.5 72t-67 105t-24.5 125.5q0 110 54.5 184.5t160.5 132.5l9 -16q-58 -38 -100.5 -97t-42.5 -132q0 -53 13 -98.5t42 -89.5q24 22 30.5 37.5t6.5 52.5v231l196 156q52 -25 98 -39t95 -14l14 1l6 -15
l-141 -142l115 -3l-53 -92l-162 5v-294q67 0 130 22.5t119 64.5zM361 407l142 143q-38 6 -74 19t-68 32v-194zM340 96v516l-52 -43v-204q0 -33 -6.5 -54t-20.5 -37.5t-37 -34.5t-55 -45q62 -80 171 -98z" />
    <glyph glyph-name="AE" unicode="&#xc6;" horiz-adv-x="1004" 
d="M970 102l14 -16l-100 -99q-28 22 -48.5 52t-44.5 72l-110 -124q-64 28 -147 35.5t-170 3.5q-84 -4 -164 -15.5t-142 -23.5l-15 22q20 17 45.5 37t48.5 42.5t39 47t16 50.5q0 15 -9 28t-22 20t-28 5.5t-27 -15.5l-16 7q6 21 21 32.5t34 16t40.5 3t41.5 -6.5q19 7 17.5 27
t-16 41.5t-37 39t-46.5 18.5q-15 0 -30 -8t-25 -18l-15 3q9 28 28 44.5t47 16.5q23 0 42 -7t30 -15q0 36 5.5 62.5t18 49.5t34 45.5t53.5 51.5l-67 -29q-38 -16 -85.5 -18t-84.5 2q-22 0 -35 -17t-21 -37l-20 6q5 23 17 49t29 48.5t37.5 37t42.5 14.5q10 0 21 -6
q22 -12 54.5 -18t65 -5t59 8t37.5 20l9 -8q-39 -74 -56.5 -142.5t-15.5 -159.5l1 -39q1 -79 -14 -116q-13 -35 -72 -85l-124 -105l204 22q44 113 93.5 174.5t100.5 92.5l-178 122l104 126l171 -135q-2 51 14 119.5t72 131.5l17 -14q-38 -56 -58 -113t-20 -118l171 136
l103 -127l-178 -122q52 -31 97.5 -88.5t107.5 -152.5q9 0 19 6t19 15zM608 256q-33 -4 -59.5 -22.5t-47 -45t-36.5 -58.5t-29 -63q18 7 38.5 18.5t40.5 26t37.5 29.5t27.5 28t15.5 21.5t8.5 17t3.5 19.5t0.5 29zM631 283l183 125l-71 87l-112 -89v-123zM422 402l184 -117
l-1 115l-119 92zM724 68l56 63q-30 53 -63.5 84.5t-85.5 46.5q0 -55 -18.5 -88.5t-67.5 -66.5q30 -1 52 -2.5t42 -5t40 -10.5t45 -21z" />
    <glyph glyph-name="Ccedilla" unicode="&#xc7;" horiz-adv-x="712" 
d="M667 359v-14q-13 -6 -15.5 -21t-2.5 -31v-190q-77 -11 -147 -40t-124 -77q-39 22 -73.5 40t-80.5 18q-15 0 -38.5 -3t-45.5 -11t-38 -21.5t-16 -35.5q0 -10 8.5 -23.5t8.5 -21.5q0 -11 -7.5 -20t-19.5 -9q-15 0 -24.5 13t-9.5 30t20 44.5t44.5 57t44.5 57t20 45.5
t-13 30.5t-29 12.5q-21 0 -31.5 -12.5t-16.5 -31.5h-18q0 51 29 77t79 26q0 38 -16 66t-57 28t-59 -41l-19 4q6 40 28.5 70.5t60.5 30.5q16 0 31 -2t34 -11q42 -19 65.5 -62.5t23.5 -102.5q0 -38 -15.5 -70.5t-56.5 -70.5q28 15 58 21.5t59 7.5t54 -3.5t42 -11.5v373h22
v-120l142 106l-123 168q-48 -17 -63.5 -44t-15.5 -81l-99 -83q-5 33 -0.5 65t18 59.5t37.5 49t58 32.5l137 54l136 -184l-107 -79zM550 292v19l-88 44l-36 -27v-38q27 -10 61.5 -11t62.5 13zM550 198v70q-38 -10 -63.5 -10t-60.5 10v-70q25 8 62.5 7.5t61.5 -7.5zM467 75
l83 31v68q-31 8 -66 11t-58 -11v-80l21 -9z" />
    <glyph glyph-name="Egrave" unicode="&#xc8;" horiz-adv-x="773" 
d="M740 81l13 -19l-100 -84q-39 24 -54.5 52.5t-15.5 76.5q-69 -58 -130.5 -87.5t-140.5 -29.5q-56 0 -103 23t-81 61.5t-53 88.5t-19 104q0 125 56 204t176 135q2 1 -13.5 0t-40.5 -1.5t-55.5 0.5t-58.5 6q-21 2 -36 -7t-24 -25t-13.5 -37t-4.5 -42h-20l-1 15q-3 37 3 70
t20 57.5t36.5 39t53.5 14.5q35 0 75.5 -13t79.5 -22t72 -6t53 36h14v-258q16 -14 36 -21.5t41.5 -9t42.5 3.5t37 16v141l-44 35l-52 -53l-15 15l111 116l94 -70l47 49l18 -15q-18 -18 -29.5 -32t-18.5 -31t-10 -38t-3 -52v-353q0 -35 7 -48.5t23 -13.5zM585 294v103
q-35 -15 -60.5 -17.5t-44 1.5t-31 11.5t-21.5 13.5v-109q43 21 80 19t77 -22zM585 143v126q-41 23 -79.5 25t-77.5 -23v-202q43 5 82.5 24.5t74.5 49.5zM380 65l26 1v570q-41 -41 -41 -109v-247q0 -33 -15.5 -63t-36 -53.5t-41 -38.5t-30.5 -18q28 -21 65.5 -31.5
t72.5 -10.5zM360 621q-94 -48 -151.5 -127t-57.5 -180q0 -53 16.5 -100.5t53.5 -87.5q27 21 37 56.5t10 76.5v177q0 34 5 55.5t16 40t28.5 38.5t42.5 51z" />
    <glyph glyph-name="Eacute" unicode="&#xc9;" horiz-adv-x="825" 
d="M783 851l22 -11l-143 -149l-167 114l64 46l146 -79zM740 81l13 -19l-100 -84q-39 24 -54.5 52.5t-15.5 76.5q-69 -58 -130.5 -87.5t-140.5 -29.5q-56 0 -103 23t-81 61.5t-53 88.5t-19 104q0 125 56 204t176 135q2 1 -13.5 0t-40.5 -1.5t-55.5 0.5t-58.5 6q-21 2 -36 -7
t-24 -25t-13.5 -37t-4.5 -42h-20l-1 15q-3 37 3 70t20 57.5t36.5 39t53.5 14.5q35 0 75.5 -13t79.5 -22t72 -6t53 36h14v-258q32 -29 78 -31t79 20v141l-44 35l-52 -53l-15 15l111 116l94 -70l47 49l18 -15q-18 -18 -29.5 -32t-18.5 -31t-10 -38t-3 -52v-353q0 -35 7 -48.5
t23 -13.5zM585 294v103q-35 -15 -60.5 -17.5t-44 1.5t-31 11.5t-21.5 13.5v-109q43 21 79.5 19t77.5 -22zM585 143v126q-41 23 -79.5 25t-77.5 -23v-202q43 5 82.5 24.5t74.5 49.5zM380 65l26 1v570q-41 -41 -41 -109v-247q0 -33 -15.5 -63t-36 -53.5t-41 -38.5t-30.5 -18
q28 -21 65.5 -31.5t72.5 -10.5zM360 621q-94 -48 -151.5 -127t-57.5 -180q0 -53 16.5 -100.5t53.5 -87.5q27 21 37 56.5t10 76.5v177q0 34 5 55.5t16 40t28.5 38.5t42.5 51z" />
    <glyph glyph-name="Ecircumflex" unicode="&#xca;" horiz-adv-x="761" 
d="M727 102l14 -16l-100 -99q-28 22 -48.5 52t-44.5 72l-110 -124q-95 44 -189.5 47t-190.5 -47l-15 22q20 17 45.5 37t48.5 42.5t39 47t16 50.5q0 15 -9 28t-22 20t-28 5.5t-27 -15.5l-16 7q7 23 23 37.5t35.5 19t40 -1.5t37.5 -24l1 14q2 28 -8.5 55t-30 43.5t-45 19
t-53.5 -17.5l-15 3q4 24 21 40t38.5 21.5t45.5 0.5t42 -23q0 36 5.5 62.5t18 49.5t34 45.5t53.5 51.5l-67 -29q-11 -4 -24.5 -6t-25.5 -2l-84 8q-31 3 -56 -19.5t-36 -50.5l-20 6q12 60 50.5 101.5t96.5 41.5q24 0 53.5 -7.5t58.5 -12t56.5 -1t47.5 25.5l9 -8
q-39 -74 -56.5 -142.5t-15.5 -159.5l1 -39q1 -39 -1 -65.5t-10.5 -48.5t-26.5 -41.5t-48 -45.5l-101 -84l96 46q39 18 65 35.5t42 39t22.5 49.5t5.5 68l-1 58q-1 54 4 101.5t13 87.5q16 82 68 147l17 -14q-38 -56 -58 -113t-20 -118l171 136l103 -127l-178 -122
q53 -32 94.5 -88t93.5 -146q25 -18 47 6zM388 283l183 125l-71 87l-112 -89v-123zM481 68l56 63q-30 53 -63.5 84.5t-85.5 46.5q0 -55 -18.5 -88.5t-67.5 -66.5q30 -1 52 -2.5t42 -5t40 -10.5t45 -21z" />
    <glyph glyph-name="Edieresis" unicode="&#xcb;" horiz-adv-x="772" 
d="M725 32l17 -18l-111 -89q-22 15 -35.5 29t-20.5 30.5t-9 38t-2 52.5v196q-31 23 -88.5 21.5t-136.5 -39.5v-95q0 -43 -11 -83.5t-33.5 -71.5t-58.5 -49.5t-85 -18.5q-15 0 -37.5 5t-46.5 10.5t-45.5 10.5t-35.5 5q-39 0 -79 -23l-12 11q22 35 53.5 58t69.5 23
q13 0 30.5 -2.5t39.5 -6.5l51 -8q29 0 47 19.5t18 50.5q0 37 -29 64.5t-67 27.5q-12 0 -28 -6l-26 -14l-12 12q9 19 25.5 30.5t37 15.5t42 -0.5t40.5 -17.5q-6 29 -22.5 51t-39.5 34t-51 12.5t-56 -13.5l-10 14q16 20 37.5 30t44.5 11.5t45.5 -7t41.5 -26.5q-1 30 -15 56
t-36 41.5t-50 18t-58 -15.5l-10 12q22 31 56 40t69 -2l44 -19v96l301 147q100 -22 143.5 -71.5t43.5 -144.5v-36l1 -1v-361q0 -23 5.5 -33.5t25.5 -22.5zM564 436l2 28q-5 70 -49 97t-116 27q-37 0 -62 -13v-143q63 -43 112 -45t113 49zM339 280q58 33 121 39q28 2 55 -2
t49 -15v104q-31 -26 -54.5 -36t-49.5 -10q-30 0 -57 9t-64 35v-124zM319 179v389l-21 -8l-24 -11v-378q0 -69 -14 -105t-52 -63q56 -4 83 42.5t28 133.5z" />
    <glyph glyph-name="Igrave" unicode="&#xcc;" horiz-adv-x="912" 
d="M875 93l17 -18l-111 -89q-22 15 -35.5 29t-20.5 30.5t-9 38t-2 52.5v424l-67 54l-24 -17v-221h55l-55 -73v-188l34 29l16 -15l-162 -143q-20 25 -47.5 50t-57.5 48v12q18 12 25 31t7 42v136h-125v-190q0 -36 -8 -67.5t-25.5 -55t-44 -36t-63.5 -10.5l-84 5
q-21 1 -32 -11.5t-15 -31.5h-21q0 37 13.5 59t34.5 35.5t44.5 22.5t44.5 21t34.5 31t13.5 52q0 20 -6 44.5t-18 46t-30.5 36t-42.5 14.5q-34 0 -53 -30l-17 13q34 67 122 80l1 40q2 73 48.5 132t125.5 102l128 69q39 -22 55 -47t16 -71l169 122l103 -83l41 41l17 -15
q-28 -31 -38 -59t-10 -76v-361q0 -23 5.5 -33.5t25.5 -22.5zM536 376h66v206l-66 -48v-158zM354 376h84v142q0 15 0.5 25.5t-3 20t-13 21t-29.5 27.5q-28 -18 -44 -33.5t-24 -33.5t-10 -41t-2 -57v-128zM602 101v204h-66v-139q0 -22 3.5 -40t11 -28.5t20 -10.5t31.5 14z
M307 558q-49 -38 -50 -90l-3 -88v-194q0 -64 -12 -102.5t-58 -57.5l31 -2q40 -2 58.5 32.5t18.5 93.5v295q0 21 -0.5 34t0.5 24.5t4.5 24t10.5 30.5z" />
    <glyph glyph-name="Iacute" unicode="&#xcd;" horiz-adv-x="773" 
d="M740 81l13 -19l-100 -84q-24 15 -38 30t-20.5 33.5t-8 43t-1.5 58.5v126q-9 -13 -30 -22.5t-46 -11.5q-19 -1 -40 2t-41 11v-249h-22v637q-41 -41 -41 -109v-247q0 -97 -123 -173q13 -10 29 -17.5t35 -14.5q-2 -22 -4 -46t3 -43q-54 0 -95.5 21t-80.5 65q-73 83 -73 195
q0 62 15.5 109t45.5 85.5t73 73t98 71.5l-48 -4q-22 -2 -53 2t-41 4q-56 0 -84 -43q-20 -31 -20 -65h-20l-1 15q-3 48 4 81t22.5 54.5t37.5 32t49 12.5q39 3 84.5 -9t88.5 -31q7 1 18.5 0.5t26 2t31 9.5t31.5 24h14v-258q4 -3 14.5 -8.5t29.5 -9.5t47 -4.5t66 5.5v147
l-44 35l-52 -53l-15 15l111 116l94 -70l47 49l18 -15q-18 -18 -29.5 -32t-18.5 -31t-10 -38t-3 -52v-353q0 -30 5.5 -46.5t24.5 -16.5q7 0 16 4.5zM585 294v103q-24 -10 -48.5 -12.5t-46.5 0t-38.5 8.5t-23.5 13v-124q11 -14 33 -18t46.5 -1t46 11.5t31.5 19.5zM360 621
q-94 -48 -151.5 -127t-57.5 -180q0 -53 16.5 -100.5t53.5 -87.5q27 21 37 56.5t10 76.5v177q0 34 6 57t17.5 41.5t28.5 38t40 48.5z" />
    <glyph glyph-name="Icircumflex" unicode="&#xce;" horiz-adv-x="734" 
d="M704 380q0 -64 -38.5 -133t-97 -126t-129 -94t-133.5 -37q-61 0 -113.5 24t-91 64.5t-60 95t-21.5 114.5q0 50 11 96q10 44 33 101l325 195q58 -9 115 -33t101 -62t71.5 -89.5t27.5 -115.5zM586 452q-29 56 -91 90.5t-135 46.5v-137q24 -21 53 -33t59.5 -12.5t60 10.5
t53.5 35zM596 266l9 14q3 14 4 33t-0.5 40t-5 41.5t-9.5 35.5q-27 -22 -59 -36t-64 -13q-29 0 -57.5 13.5t-53.5 35.5v-151q52 46 117 43q31 -2 61.5 -15.5t57.5 -40.5zM588 242q-22 28 -52 42.5t-62 15.5t-62.5 -11.5t-51.5 -39.5v-183q77 0 139 49t89 127zM338 66v525
l-51 3v-258q0 -39 -5 -64.5t-18 -45t-34.5 -37.5t-54.5 -43q68 -68 163 -80zM194 274v262q-47 -34 -72 -83.5t-25 -107.5q0 -100 63 -182q22 21 28 44t6 67z" />
    <glyph glyph-name="Idieresis" unicode="&#xcf;" horiz-adv-x="704" 
d="M673 237l16 -4q-12 -46 -36.5 -86t-58.5 -71t-76 -51.5t-89 -28.5l-15 16q29 20 40 53t11 95v397l-66 13v-252q0 -25 -18.5 -67.5t-59.5 -89.5q-44 -49 -85 -67t-74 -18q-88 85 -88 211q0 50 16 96.5t42 86t59 70.5t68 49q2 1 -24 3t-63.5 -8t-77.5 -37t-64 -83l-15 6
q24 97 89.5 152t164.5 55q16 0 59 -6t91 -12.5t91 -12.5t59 -6q71 0 104 55l16 -6q-4 -35 -20.5 -65t-48.5 -48q-24 -14 -57.5 -20t-75.5 -2v-468q59 15 106 54t80 97zM299 250v338q-31 -15 -56 -41.5t-43 -60t-27.5 -71.5t-9.5 -77q0 -60 23.5 -109t68.5 -91q26 17 35 44
t9 68z" />
    <glyph glyph-name="Eth" unicode="&#xd0;" horiz-adv-x="743" 
d="M703 426v-307l-144 -129q-28 13 -80 32q-18 6 -42 11.5t-43 8.5v-174h-167v182q-55 0 -104 -15.5t-98 -46.5l-10 13q43 46 95 83.5t117 48.5q3 44 -8.5 80t-34 63t-53.5 45t-67 27l-5 15l168 117q0 57 -15.5 98t-65.5 41q-19 0 -33 -7l-35 -17l-14 16q27 30 60 48t71 18
q56 0 93 -36t37 -94l48 34v86h21v-72l120 82q59 -36 96 -66.5t57.5 -60t28 -59.5t7.5 -65zM603 421l1 10q0 61 -43 98.5t-116 74.5l-51 -34v-152q20 -14 47 -25.5t52 -11.5q29 0 58 11t52 29zM603 258v136q-30 -16 -55.5 -26t-55.5 -10q-19 0 -40 5.5t-58 27.5v-137
q28 15 53 24t54 9q19 0 48 -7.5t54 -21.5zM603 80v150q-25 17 -53 26.5t-50 9.5q-28 0 -54.5 -10t-51.5 -26v-91q53 0 102 -15.5t107 -43.5zM227 323v130l-91 -62l50 -30q10 -7 21 -17t20 -21zM325 -110h48v666l-48 -34v-632z" />
    <glyph glyph-name="Ntilde" unicode="&#xd1;" horiz-adv-x="624" 
d="M598 181l11 -13q-52 -82 -127 -130t-167 -48q-63 0 -118 26t-95.5 69.5t-63.5 101t-23 119.5q0 105 55.5 187.5t153.5 133.5l9 -11q-65 -55 -101.5 -110.5t-36.5 -130.5q0 -95 54 -176q26 19 31.5 42t5.5 61v212l195 166q104 -53 212 -53l-91 -86q-40 6 -72 18t-44 17
l-18 9t-13 6v-501q68 0 128.5 24t114.5 67zM333 91v511l-49 -44v-154q0 -106 -28 -137q-13 -15 -35.5 -36t-58.5 -51q68 -77 171 -89z" />
    <glyph glyph-name="Ograve" unicode="&#xd2;" horiz-adv-x="792" 
d="M721 630l-2 -1q-9 -2 -36 -7.5t-56 -11.5t-52.5 -11t-25.5 -7q-11 -11 -18.5 -27.5t-11.5 -34.5t-5.5 -35.5t-1.5 -30.5l7 -199q0 -64 -21 -131t-61 -122t-97.5 -90t-130.5 -35q-29 9 -54.5 17.5t-47.5 10t-41.5 -6.5t-35.5 -32l-15 7q4 39 22.5 62t47.5 33t68.5 7.5
t85.5 -13.5q12 -3 25.5 2t25 15.5t19 24.5t7.5 29q0 65 -46 120q-20 24 -49.5 39t-65.5 15q-8 0 -17.5 -1t-16.5 -3l-9 14q35 29 77.5 33t85.5 -24q-1 28 -13.5 53t-33.5 41t-48.5 19t-58.5 -12l-9 15q15 20 38 30.5t48 12.5t47.5 -4.5t36.5 -20.5q0 75 35 131.5t87 70.5
q-92 4 -155 17.5t-94 13.5q-27 0 -42.5 -6.5t-24 -14.5t-11.5 -16t-3 -12q0 -1 13 5.5t23 3.5q17 0 30 -15.5t13 -34.5q0 -24 -11 -33.5t-30 -9.5q-36 0 -50.5 19.5t-14.5 49.5q0 29 14 54.5t36.5 44t51 29t57.5 10.5q15 0 61 -7t117 -12.5t165.5 -5t206.5 16.5
q38 -9 56.5 -33.5t16.5 -69.5q-1 -30 -15 -49.5t-50 -19.5q-19 0 -30 9.5t-11 33.5q0 19 13 34.5t30 15.5q10 3 23 -3.5t13 -5.5q0 4 -3 12t-11.5 16.5t-24 14.5t-42.5 6zM502 581l4 5q-49 -24 -78.5 -49t-45.5 -57.5t-20.5 -75t-3.5 -101.5l3 -171q1 -39 -2 -68
t-12.5 -51.5t-26.5 -41t-45 -35.5q76 15 111.5 74.5t34.5 142.5l-3 151q-1 57 -2.5 92.5t5 63.5t24.5 55t57 66z" />
    <glyph glyph-name="Oacute" unicode="&#xd3;" horiz-adv-x="646" 
d="M666 574q-38 0 -70 -24.5t-32 -65.5v-434h-98q28 -19 44 -42.5t16 -53.5q0 -28 -15.5 -52t-39.5 -42t-54 -28t-59 -10q-18 0 -53.5 14.5t-74.5 32.5t-73.5 32.5t-50.5 14.5q1 -7 3.5 -20t2.5 -26q2 -26 -13 -40t-40 -14q-20 0 -32 16.5t-12 28.5q0 24 11.5 40t30 26.5
t41 15t44.5 4.5q21 0 56.5 -10t73.5 -22t73 -22t53 -10q13 0 28 6t28 16t21.5 23t8.5 26q0 26 -19 49.5t-45 44.5q-24 0 -54.5 7t-60.5 18.5t-56 27t-41 32.5q-69 84 -69 233q0 44 14.5 85t31.5 59q-5 4 -23.5 19.5t-34.5 25.5q17 25 24.5 36.5t23.5 26.5q9 -4 24 -13
t34 -21t40 -26t40 -27q-14 -14 -36 -47.5t-26 -74.5q7 -8 36.5 -16.5t64.5 -11t68 3t48 24.5v78q3 43 17.5 65.5t40 33t61 13.5t79.5 7v-32zM468 243v137q-13 -16 -40.5 -23.5t-60 -7t-65.5 9t-58 26.5q-2 -15 -4.5 -36t-3.5 -42.5t0.5 -40.5t7.5 -30q50 40 111 44t113 -37z
M468 75v142q-53 38 -111.5 39.5t-107.5 -45.5q26 -76 81 -106t138 -30z" />
    <glyph glyph-name="Ocircumflex" unicode="&#xd4;" horiz-adv-x="905" 
d="M612 -251l54 47l13 -25l-119 -109q-78 77 -176.5 77t-212.5 -67l-8 12q39 46 89 78.5t111 44.5q10 87 7.5 164t-20.5 132q-21 66 -66.5 95.5t-121.5 7.5l-51 -15q0 -24 21.5 -62.5t47.5 -78.5t47.5 -77t21.5 -58q0 -23 -15.5 -39t-38.5 -16q-17 0 -29.5 9t-12.5 24
q0 26 26 26l5 -1q11 -2 23.5 -4t12.5 15q-2 13 -10 22l-70 61q-39 34 -63 55t-38 45t-19 59t-5 97q0 51 5.5 90t20 70t40 57t66.5 52l168 -135q0 35 4.5 54.5t17.5 49.5q11 26 29 43t44 43q-10 -10 -30 -12t-32 -2q-31 0 -61 10q-41 11 -64 3t-37 -52l-18 5q9 53 42.5 90
t82.5 37q30 -8 64.5 -14.5t67.5 -6.5q23 0 54 7t62 23l8 -21q-13 -7 -32.5 -19.5t-39 -26.5t-36.5 -28.5t-27 -26.5v-308q0 -36 -3 -60t-12 -43q34 36 54.5 66t20.5 50v177q0 76 12 114q6 21 27.5 40.5t51 36.5t62 29.5t59.5 19.5l7 -21q-49 -17 -73 -33q-22 -14 -37.5 -46
t-15.5 -57v-116l166 139q41 -26 66.5 -52t40 -57t20 -70t5.5 -90q0 -62 -5 -97t-19 -59t-38 -45t-63 -55l-70 -61q-8 -8 -10.5 -22t12.5 -16l24 5q17 10 24 -2.5t7 -22.5q0 -15 -12.5 -24t-29.5 -9q-23 0 -38.5 16t-15.5 39q0 21 21.5 57.5t47.5 77t47.5 79t21.5 62.5
q-53 15 -103 13t-109 -30q-45 -21 -75.5 -59t-48.5 -87.5t-24.5 -107.5t-4.5 -118q55 1 108 -18.5t100 -43.5zM772 358q-4 40 -28 66.5t-62 50.5l-115 -95v-25q24 -10 51 -16t54.5 -6t53 6t46.5 19zM769 221v110q-19 -9 -60 -19.5t-85 2.5q-13 1 -27 5.5t-30 11.5v-110
q50 23 101 25t101 -25zM313 346v25l-115 95q-42 -27 -62 -52q-24 -28 -28 -65q21 -13 46.5 -19t53 -6t54.5 6t51 16zM306 218l7 -6v110q-33 -14 -57 -17q-56 -4 -91 2.5t-54 14.5v-110q7 5 36 15.5t66 11.5q23 1 47 -3.5t46 -17.5z" />
    <glyph glyph-name="Otilde" unicode="&#xd5;" horiz-adv-x="601" 
d="M567 109l19 -20l-114 -102q-22 11 -37 21.5t-26 24.5t-20 32t-20 44l-71 167l-129 -289q-59 47 -140 74l40 88l123 -49l96 215h-185l35 76h116l-51 121q-14 33 -29 57.5t-35.5 35t-47 4t-62.5 -36.5l-14 11q20 43 54.5 72t84.5 29q55 0 83 -34t51 -90l52 -126l113 252
q56 -38 133 -74l-38 -80l-115 48l-84 -189h194l-35 -76h-118l74 -175l18 -40q11 -26 27.5 -27.5t33.5 12.5z" />
    <glyph glyph-name="Odieresis" unicode="&#xd6;" horiz-adv-x="838" 
d="M734 81l89 -73q-49 -11 -97 -42.5t-90 -89.5q-4 -5 -9 -12t-12 -16l-44 12l76 118q-39 24 -54.5 52.5t-15.5 76.5q-69 -58 -130.5 -87.5t-140.5 -29.5q-56 0 -103 23t-81 61.5t-53 88.5t-19 104q0 62 15.5 109t45.5 85.5t73 73t98 71.5l-48 -4q-16 -2 -43 1t-77 8
q-21 2 -36 -7t-24 -25t-13.5 -37t-4.5 -42l-21 2q0 38 6.5 76.5t17.5 64.5q24 53 89 53q39 -11 77.5 -22t74.5 -14.5t68.5 2.5t59.5 29h14q-21 -35 -34.5 -62.5t-20 -50.5t-8 -44t-0.5 -42l-96 -48l5.5 22t4.5 17q29 91 81 138q-94 -48 -151.5 -127t-57.5 -180
q0 -49 15.5 -101.5t54.5 -86.5q23 -20 45 -31t45 -16.5t46.5 -7.5t48.5 -5l1 292q40 -33 89.5 -36.5t88.5 16.5v225l-44 35l-52 -53l-15 15l111 116l94 -70l47 49l18 -15q-18 -18 -29.5 -32t-18.5 -31t-10 -38t-3 -52v-366q0 -29 6 -41t18 -12q11 0 16 2t17 11zM579 210v103
q-24 -11 -48.5 -13.5t-46.5 0t-38.5 8.5t-23.5 14v-109q44 29 80 23t77 -26zM579 143v42q-41 23 -79.5 25t-77.5 -23v-118q43 5 82.5 24.5t74.5 49.5z" />
    <glyph glyph-name="multiply" unicode="&#xd7;" horiz-adv-x="660" 
d="M645 6l-8 -9q-89 50 -190 50q-54 0 -105.5 -15t-94.5 -45l-113 108l15 16l46 -43q15 11 33 19l44 20v189l-257 173l88 243l77 -56l-70 -223l162 -111v282l74 -49q0 60 36 91t100 31q38 0 71.5 -18.5t56.5 -46.5l-10 -16q-48 17 -81 17q-25 0 -40.5 -11t-24 -29t-11 -40
t-2.5 -44l173 -121v-14q-82 -37 -129 -88.5t-48 -136.5q65 -9 115 -39t93 -84zM542 390l-101 70v-145q42 45 101 75zM294 114l52 12v401l-52 36v-449z" />
    <glyph glyph-name="Oslash" unicode="&#xd8;" horiz-adv-x="914" 
d="M869 426q0 -86 -39.5 -163t-99.5 -142q-28 -29 -63 -63t-78 -71q-27 30 -57 41t-60 8t-60 -16.5t-57 -32.5q-28 30 -50 40t-40 10q-73 0 -152 -50l-11 16q30 53 53 98.5t23 103.5q0 16 -6 33.5t-15.5 32.5t-22 24.5t-25.5 9.5q-19 0 -48 -15l-13 13q10 18 26.5 31.5
t36 18.5t40.5 -2t40 -29q1 53 -6 104.5t-21 92t-34 65.5t-46 25q-22 0 -34.5 -22t-12.5 -46l-22 3q3 26 9.5 50.5t18.5 44t31.5 31.5t47.5 12q42 0 72 -26.5t49.5 -66.5t29.5 -87t11 -88q50 -26 101.5 -25t96.5 33q-9 52 -28 101t-47 83l74 80q25 -36 43 -67.5t30.5 -63
t19.5 -66t10 -75.5q19 -12 46 -16.5t54 -3.5t49 6.5t31 13.5q-5 49 -21.5 101t-43.5 89l77 80q37 -56 65.5 -122t27.5 -136zM765 377l-1 14q-16 -8 -39.5 -13t-48.5 -6t-49.5 3.5t-42.5 15.5q0 -37 -7 -67t-25 -64q46 24 93 13t91 -36q5 12 10 30t9.5 37.5t7 38.5t2.5 34z
M692 152l35 64q-48 29 -96.5 33.5t-93.5 -20.5q-17 -28 -42 -60t-48.5 -58.5t-39.5 -44t-15 -17.5q22 18 52 29.5t62 15.5t64 -2t58 -24q4 5 13 16t19 24t19 25t13 19zM488 378l-4 18q-22 -14 -48.5 -22t-53.5 -9t-52.5 5.5t-45.5 20.5q3 -35 -3.5 -68.5t-16.5 -68.5
q28 10 51 16t45.5 4.5t46 -11t52.5 -29.5q11 35 19.5 70.5t9.5 73.5zM450 213q-46 31 -97.5 35t-99.5 -25l-48 -94q-7 -13 -12 -22l-10 -18t-11.5 -19t-15.5 -25q15 9 40.5 21t55 19.5t58 7t47.5 -15.5l21 -16q22 36 40 74t32 78z" />
    <glyph glyph-name="Ugrave" unicode="&#xd9;" horiz-adv-x="925" 
d="M784 84l74 -58l-3 -25q-49 -16 -96.5 -54t-86.5 -99l-44 12l76 118q-39 24 -55 52l-60 -43q-21 23 -44.5 36.5t-48.5 13.5q-23 0 -40 -3t-32.5 -9.5t-31.5 -16t-37 -21.5q-28 30 -50 40t-40 10q-73 0 -152 -50l-11 16q30 53 53 98.5t23 103.5q0 16 -6 33.5t-15.5 32.5
t-22 24.5t-25.5 9.5q-19 0 -48 -15l-13 13q10 18 26.5 31.5t36 18.5t40.5 -2t40 -29q1 53 -6 104.5t-21 92t-34 65.5t-46 25q-22 0 -34.5 -22t-12.5 -46l-22 3q3 26 9.5 50.5t18.5 44t31.5 31.5t47.5 12q42 0 72 -26.5t49.5 -66.5t29.5 -87t11 -88q50 -26 101.5 -25t96.5 33
q-9 52 -28 101t-47 83l74 80q25 -36 43 -67.5t30.5 -63t19.5 -66t10 -75.5q19 -12 46 -16.5t54 -3.5t49 6.5t31 13.5q-5 49 -21.5 101t-43.5 89l77 80q38 -56 65.5 -122t27.5 -136q0 -86 -41 -158.5t-94 -133.5q-9 -9 -11.5 -20.5t0.5 -21t10.5 -16t17.5 -6.5q11 0 33 14z
M765 377l-1 14q-15 -6 -36 -12.5t-45 -9t-49.5 2t-49.5 19.5q0 -37 -7 -67t-25 -64q51 26 95.5 14t88.5 -37q5 12 10 30t9.5 37.5t7 38.5t2.5 34zM692 152l35 64q-48 29 -96.5 33.5t-93.5 -20.5q-17 -28 -42 -60t-48.5 -58.5t-39.5 -44t-15 -17.5q27 18 64 39t74 33t71 8.5
t55 -33.5zM485 373l-1 23q-22 -14 -49 -21.5t-54 -8.5t-52 5t-45 20l1 -11q2 -26 -4.5 -58.5t-16.5 -67.5q22 13 49 17t54.5 0.5t51.5 -13t40 -24.5l19 70q4 16 5.5 33.5t1.5 35.5zM450 213q-21 17 -48.5 23.5t-55.5 6.5t-53 -6t-40 -14q-25 -48 -39.5 -76.5t-24.5 -46
t-17 -29t-16 -26.5q25 29 60.5 42.5t69 14.5t60 -8t33.5 -25q1 -2 11 17t22.5 44.5t23.5 50t14 32.5z" />
    <glyph glyph-name="Uacute" unicode="&#xda;" horiz-adv-x="718" 
d="M703 477v-307q0 -35 -7.5 -65t-28 -59.5t-57.5 -60t-96 -66.5l-120 82v-72h-21v86l-48 34q0 -58 -37 -94t-93 -36q-38 0 -71 18t-60 48l14 16q37 -19 67 -19q31 0 47 12t23 31.5t8.5 43t3.5 47.5l-168 117l5 15q36 8 65.5 22.5t51 33t33.5 38t12 36.5q0 10 -8.5 28
t-23 34t-34.5 24.5t-42 -0.5l-26 -14l-12 12q9 19 25.5 30.5t37 15.5t42 -0.5t40.5 -17.5q-6 29 -22.5 51t-39.5 34t-51 12.5t-56 -13.5l-10 14q16 20 37.5 30t44.5 11.5t45.5 -7t41.5 -26.5q-1 30 -15 56t-36 41.5t-50 18t-58 -15.5l-10 12q22 31 56 40t69 -2l44 -19h179
v-173q18 2 40.5 8t45.5 13.5t44 16t35 14.5zM603 366v150q-58 -27 -109 -43t-100 -16v-91q50 -37 105 -35.5t104 35.5zM603 202v136q-27 -15 -51 -21q-40 -13 -80.5 -5t-77.5 30v-137q35 21 61.5 28t49.5 5t46 -12t52 -24zM325 74l48 -34v666h-48v-632zM605 164l-2 11
q-45 37 -104 39t-105 -36v-152l51 -34q73 37 116.5 75t43.5 97zM136 205l91 -62v130q-20 -23 -41 -38z" />
    <glyph glyph-name="Ucircumflex" unicode="&#xdb;" horiz-adv-x="1210" 
d="M1184 626l11 -23q-49 -6 -79 -27.5t-27 -69.5l6 -89l7 -86q5 -75 -27.5 -131t-90.5 -108q-29 -26 -61.5 -49t-64.5 -42.5t-62 -35t-54 -26.5l-12 20q71 44 103 86t32 77q0 27 -16.5 49.5t-44.5 22.5q-12 0 -27 -6l-10 11q19 25 47.5 29.5t56.5 -15.5q3 25 -6 45.5
t-25.5 32t-39 12.5t-46.5 -14l-12 9q23 30 53.5 42t64.5 -1q-2 43 4 77t18 61t28.5 49t34.5 42q-40 19 -84 27.5t-87.5 6.5t-83.5 -14.5t-73 -35.5l86 -75v-307q0 -35 -7.5 -65t-28 -59.5t-57.5 -60t-96 -66.5l-120 82v-72h-21v86l-48 34q0 -58 -37 -94t-93 -36
q-38 0 -71 18t-60 48l14 16q38 -21 68 -19t49.5 20t28 48t3.5 66l-168 117l5 15q36 8 67 26t53.5 45.5t34 63.5t8.5 80q-66 12 -116.5 48t-95.5 84l10 13q49 -31 98 -46.5t104 -15.5v182h167v-174q16 2 35.5 7.5t39 12t37.5 13.5t31 13q108 56 220 47q36 -3 69.5 -8.5
t66 -10t64 -6t63.5 3.5l9 -15q-43 -32 -64 -64t-21 -79q0 -9 1 -21t2.5 -33t4 -54.5t6.5 -85.5q0 -64 -20 -116t-64 -112q137 92 137 247l-13 166q0 81 51 124t135 43zM603 366v150q-58 -27 -109 -43t-100 -16v-91q50 -37 105 -35.5t104 35.5zM603 202v136q-50 -32 -105 -31
t-104 35v-137q35 21 63 29t52.5 6.5t47 -12t46.5 -26.5zM325 74l48 -34v666h-48v-632zM605 164l-2 11q-45 37 -104 39t-105 -36v-152l51 -34q73 37 116.5 75t43.5 97zM136 205l91 -62v130z" />
    <glyph glyph-name="Udieresis" unicode="&#xdc;" horiz-adv-x="718" 
d="M703 477v-307q0 -35 -7.5 -65t-28 -59.5t-57.5 -60t-96 -66.5l-120 82v-72h-21v86l-48 34q0 -58 -37 -94t-93 -36q-38 0 -71 18t-60 48l14 16q42 -23 72.5 -20t48.5 22t25 49.5t3 63.5l-168 117l5 15q36 8 67 26t53.5 45.5t34 63.5t8.5 80q-66 12 -116.5 48t-95.5 84
l10 13q49 -31 98 -46.5t104 -15.5v182h167v-174q18 2 40.5 8t45.5 13.5t44 16t35 14.5zM603 366v150q-58 -27 -109 -43t-100 -16v-91q50 -37 105 -35.5t104 35.5zM603 202v136q-52 -34 -105.5 -31t-103.5 35v-137q35 21 61.5 28t49.5 5t46 -12t52 -24zM325 74l48 -34v666
h-48v-632zM605 164l-2 11q-45 37 -102.5 37t-106.5 -34v-152l51 -34q73 37 116.5 75t43.5 97zM136 205l91 -62v130q-11 -17 -37 -37t-54 -31z" />
    <glyph glyph-name="Yacute" unicode="&#xdd;" horiz-adv-x="676" 
d="M631 326q0 -66 -24.5 -125.5t-67 -105t-100.5 -72t-125 -26.5q-88 0 -161.5 49t-118.5 126l7 9q56 -42 119 -64.5t130 -22.5v241h-222l-53 91h175l-141 194l6 15q16 -13 45 -10t60 13.5t59.5 24.5t42.5 24l196 -156v-231q0 -37 6.5 -52.5t30.5 -37.5q29 44 42 89.5
t13 98.5q0 73 -42.5 132t-100.5 97l9 16q106 -58 160.5 -132.5t54.5 -184.5zM482 194q-32 24 -55 41t-37 35t-20.5 40t-6.5 55v204l-52 43v-516q109 18 171 98zM148 550l142 -195v246q-32 -19 -68 -32t-74 -19z" />
    <glyph glyph-name="Thorn" unicode="&#xde;" horiz-adv-x="1189" 
d="M1144 380q0 -64 -38.5 -133t-97 -126t-129 -94t-133.5 -37q-50 0 -95.5 16.5t-82 46t-62.5 70t-37 89.5q-5 3 -15.5 5.5t-23 5t-24 7t-17.5 12.5q-1 -32 -3 -70t6.5 -70.5t31.5 -54t71 -20.5l-11 -23q-82 0 -133 43t-53 124q-2 72 2 129t-3 103q-11 61 -39 104t-84 77
q44 -60 64 -112t20 -116q-4 -52 -6.5 -85.5t-4 -54.5t-2.5 -33t-1 -21q0 -47 21 -78.5t64 -64.5l-9 -15q-64 22 -107 88q-27 41 -42 83.5t-13 79.5l2 36q-30 -14 -64 -0.5t-54 41.5l12 9q24 -15 46.5 -14t39 12.5t25.5 32t6 45.5q-47 -17 -89.5 6t-66.5 64l10 11
q24 -22 41.5 -36t34.5 -16q39 -4 51.5 18t12.5 44q0 35 -32 77t-103 86l12 20q50 -30 108 -50.5t117 -24t116 13.5t105 61l143 -129l198 118q59 -9 115.5 -33t100.5 -62t71.5 -89.5t27.5 -115.5zM1026 452q-29 56 -91 90.5t-135 46.5v-137q24 -21 53 -33t59.5 -12.5t60 10.5
t53.5 35zM1036 266l8 18q19 79 -10 146q-55 -49 -118.5 -47.5t-115.5 47.5v-151q54 52 119.5 49t116.5 -62zM1028 242q-22 28 -52 42.5t-62 15.5t-62.5 -11.5t-51.5 -39.5v-183q77 0 139 49t89 127zM778 66v525l-51 3v-258q0 -39 -5 -64.5t-18 -45t-34.5 -37.5t-54.5 -43
q68 -68 163 -80zM634 274v262q-47 -34 -72 -83.5t-25 -107.5q0 -100 63 -182q22 21 28 44t6 67zM594 544l13 8l-69 57q-62 -54 -140 -61.5t-161 20.5q41 -33 79.5 -71.5t56.5 -73.5q2 -4 14.5 -9.5t29 -10t32.5 -7t25 -1.5q20 55 51 90.5t69 58.5zM465 244q-6 41 -5 65.5
t5 58.5q-15 1 -41.5 5t-43.5 24q10 -27 11.5 -48t1.5 -56q-3 -12 3.5 -21t17.5 -15.5t25 -9.5t26 -3z" />
    <glyph glyph-name="germandbls" unicode="&#xdf;" horiz-adv-x="763" 
d="M748 6l-8 -9q-89 50 -190 50q-54 0 -105.5 -15t-94.5 -45l-113 108l15 16l46 -43q8 6 22 13t55 26v189q-36 5 -65 -8t-50.5 -37t-36.5 -55.5t-23 -62.5q-9 -34 -18 -57.5t-14 -33.5q-17 -30 -50 -55l-103 97l15 17l37 -33q41 31 57.5 72t30 83.5t36 81.5t75.5 65h-219
l223 306l179 -121q0 60 36 91t100 31q38 0 71.5 -18.5t56.5 -46.5l-10 -11q-34 22 -68 22q-28 0 -46 -12t-28 -31t-13.5 -43t-3.5 -48l173 -121v-14q-42 -15 -77.5 -41t-60 -57t-35.5 -64t-4 -63q65 -9 115 -39t93 -84zM645 390l-101 70v-145q42 45 101 75zM193 400h184v176
l-43 29zM397 114l52 12v401l-52 36v-449z" />
    <glyph glyph-name="agrave" unicode="&#xe0;" horiz-adv-x="420" 
d="M334 380v-254q0 -29 8.5 -45.5t33.5 -3.5l14 8l10 -13l-106 -84q-22 19 -42 40.5t-20 43.5l-130 -85q-33 26 -55 57t-22 69v154q52 13 92.5 34t50.5 30l64 -33v125q-30 -20 -66.5 -29.5t-76.5 -4.5l-69 69q50 -4 86 2.5t83 32.5q1 0 31 -17.5t62 -42.5q12 12 22 20
t21 13.5t25.5 10t36.5 10.5l3 -14q-37 -23 -46.5 -44t-9.5 -49zM189 90l43 22v141l-65 32l-46 -23v-126q-1 -24 17.5 -40t50.5 -6z" />
    <glyph glyph-name="aacute" unicode="&#xe1;" horiz-adv-x="406" 
d="M175 395v-67q19 8 38 18t35 23q32 -36 63 -54.5t75 -41.5v-115q0 -32 -5.5 -55.5t-17.5 -42.5t-31 -36.5t-46 -36.5l-111 111q0 -31 -15 -60t-45 -51l-95 82l10 13q16 -7 33.5 -4.5t17.5 28.5v257q0 11 -1.5 23t-7 20t-15.5 10.5t-27 -6.5l-10 13l96 77q30 -17 44.5 -38
t14.5 -32l104 64q26 -10 47.5 -18t59.5 -11l-46 -83q-28 10 -53 25t-42 32zM291 166v118l-42 38q-15 -9 -36 -18t-37 -16v-159l59 -56q18 12 29 20.5t17 18t8 22t2 32.5z" />
    <glyph glyph-name="acircumflex" unicode="&#xe2;" horiz-adv-x="409" 
d="M179 373v-58q23 1 47.5 11.5t44 27.5t29.5 38.5t2 43.5q-4 13 -14.5 18.5t-22 6t-23.5 -2.5t-19 -6q-11 -5 -27.5 -25.5t-16.5 -53.5zM389 154q0 -32 -5 -54.5t-16.5 -41t-30.5 -34.5t-46 -36l-112 106q0 -63 -60 -107l-96 78l10 13q17 -7 34 -3.5t17 29.5v256
q0 10 -1.5 23t-6.5 22t-14.5 12t-26.5 -6l-10 13l98 70q13 -4 23 -13.5t17 -19.5q12 11 33 22t44 11q37 0 72.5 -8.5t57.5 -45.5q14 -28 4 -64t-45 -74l60 -33v-115zM289 162v125q-25 -15 -51 -23t-59 -13v-126l60 -56q18 12 28 20.5t15 18t6 22t1 32.5z" />
    <glyph glyph-name="atilde" unicode="&#xe3;" horiz-adv-x="368" 
d="M246 289v121q-40 -14 -76.5 -22.5t-89.5 -2.5l-51 71q50 -4 89.5 4t86.5 34q31 -28 68 -48t75 -30v-167q-32 -16 -60.5 -37.5t-59.5 -49.5l-66 75l-46 -31v-134q40 14 78 22t91 2l51 -71q-50 4 -90 -4t-86 -34q-62 56 -140 78v184q28 11 56 34t56 49l59 -72z" />
    <glyph glyph-name="adieresis" unicode="&#xe4;" horiz-adv-x="381" 
d="M20 432v-341l132 -109l76 92q3 -82 -37.5 -148.5t-139.5 -108.5l6 -18q10 4 25.5 10t30.5 12t27.5 11.5t17.5 7.5q37 16 68.5 37.5t54.5 51t35 68.5t9 92v247q-1 94 36 137l-13 9l-21 -17q-13 -11 -31.5 -9t-39.5 9.5t-44 18.5t-44 20q-34 -40 -69 -53t-79 -19zM228 126
l-41 -43l-70 55v287l111 -41v-258z" />
    <glyph glyph-name="aring" unicode="&#xe5;" horiz-adv-x="341" 
d="M214 494l122 -157l-181 -150v-92l87 -44l71 49l10 -14l-145 -99q-36 21 -76 39.5t-78 24.5v10q21 12 28.5 34t7.5 58v193q0 39 -36 39l-4 10zM155 220l102 83l-102 131v-214z" />
    <glyph glyph-name="ae" unicode="&#xe6;" horiz-adv-x="666" 
d="M636 87l10 -15l-106 -85q-28 33 -38 71.5t-17 73.5t-18 62.5t-41 37.5l-42 -38v-94l35 -36l-87 -71l-76 70l33 36v90l-55 48q-4 3 -10 -6t-13 -24t-13 -32t-9 -31q-8 -39 -27.5 -84t-39.5 -73l-102 93l10 15l27 -21q18 21 26.5 49t16.5 59t21 62.5t42 59.5l-102 98l95 92
l133 -119v28q0 22 -17 42.5t-41 36.5l6 12q23 -6 50 -20t43 -33q12 12 21.5 20t20 13.5t24.5 9.5t36 10l3 -14q-18 -12 -28.5 -22t-15.5 -22t-6 -27.5t-1 -37.5l127 123l94 -100l-102 -100l11 -9q28 -23 41 -54t20 -62.5t13 -59t21 -43.5zM384 220l140 125l-66 71l-74 -71
v-125zM144 356l145 -131v123l-84 72z" />
    <glyph glyph-name="ccedilla" unicode="&#xe7;" horiz-adv-x="307" 
d="M287 160q0 -33 -31.5 -65t-69.5 -61.5t-69.5 -55.5t-31.5 -47q0 -16 8.5 -27.5t24.5 -11.5l33 6q9 2 13.5 -3t4.5 -9q0 -11 -9.5 -17t-23.5 -6q-29 0 -51.5 19.5t-22.5 48.5q0 15 18.5 42t40.5 56t40.5 57t18.5 44q0 34 -18.5 57t-52.5 23q-28 0 -41 -7t-23 -13l-12 11
l139 147l-90 73l-49 -35l-13 16l122 91l53 -44q29 -35 60 -22l8 -11l-127 -134l14 2q28 4 52.5 -5.5t43.5 -27.5t30 -42t11 -49z" />
    <glyph glyph-name="egrave" unicode="&#xe8;" horiz-adv-x="467" 
d="M433 81l14 -17l-100 -77q-34 26 -47.5 51.5t-13.5 68.5l-131 -120q-24 22 -51 42.5t-58 34.5v13q28 11 28 48v263l-21 16l-20 -16l-13 16l102 90l83 -73l-36 -30v-283l47 -37l70 64v257l-35 29l82 73l84 -73l-36 -29v-264q0 -57 29 -57q10 0 23 10z" />
    <glyph glyph-name="eacute" unicode="&#xe9;" horiz-adv-x="467" 
d="M245 632l83 -3l-83 -113l-24 2zM433 81l14 -17l-100 -77q-34 26 -47.5 51.5t-13.5 68.5l-131 -120q-24 22 -51 42.5t-58 34.5v13q28 11 28 48v263l-21 16l-20 -16l-13 16l102 90l83 -73l-36 -30v-283l47 -37l70 64v257l-35 29l82 73l84 -73l-36 -29v-264q0 -57 29 -57
q10 0 23 10z" />
    <glyph glyph-name="ecircumflex" unicode="&#xea;" horiz-adv-x="444" 
d="M424 87l10 -15l-106 -85q-7 8 -21.5 30t-26.5 77q-10 45 -24.5 78.5t-38.5 53.5l-45 -42v-92l31 -38l-88 -67l-73 67l35 37v260q0 44 -13 68.5t-44 45.5l6 12q23 -6 41.5 -16.5t34.5 -29.5q25 25 50.5 38t69.5 24l3 -14q-32 -16 -43 -41.5t-10.5 -41.5t0.5 -19l127 117
l88 -115l-88 -82q26 -19 37 -48t17.5 -61t15 -64t28.5 -58zM305 345l-56 68l-77 -70v-123z" />
    <glyph glyph-name="edieresis" unicode="&#xeb;" horiz-adv-x="408" 
d="M375 90l13 -14l-102 -84q-21 9 -33 22.5t-17 31t-6.5 38t-1.5 43.5v234q0 13 -5 25q-45 -32 -75.5 -81t-30.5 -107q0 -33 12.5 -69.5t31.5 -64.5l-73 -79q-43 49 -55.5 96t-12.5 79q0 38 11.5 70t32.5 60q26 34 64.5 60t87.5 58q-4 20 -14 32t-30 25l6 12
q23 -6 41.5 -16.5t34.5 -29.5q25 25 50.5 38t69.5 24l3 -14q-32 -20 -42 -44.5t-11 -68.5v-223q0 -36 5.5 -52t30.5 -13z" />
    <glyph glyph-name="igrave" unicode="&#xec;" horiz-adv-x="600" 
d="M145 495l139 -112l115 112q33 -13 62 -32t42 -42l47 45l14 -16q-32 -31 -41.5 -57t-9.5 -73v-168q0 -50 12 -71t43 10l12 -20l-105 -85q-19 17 -30 32.5t-17 32.5t-7.5 37t-1.5 47v241q0 16 -13 26t-26 19l-47 -52v-268l39 -36l-85 -73l-86 71l37 38v265l-60 52
q-23 -20 -31.5 -49.5t-9.5 -59.5t3 -57.5t6 -42.5l10 -86q0 -72 -39.5 -120.5t-116.5 -89.5l-6 15q36 24 55 66t15 84q-2 17 -5.5 43t-8 56t-8.5 63t-5 63q-1 23 5 51t19.5 55t34 50t49.5 36z" />
    <glyph glyph-name="iacute" unicode="&#xed;" horiz-adv-x="469" 
d="M449 72l-12 20q-31 -31 -43 -11t-12 72v168q0 25 2 43t7.5 32t15.5 27t26 28l-14 16l-47 -45l-72 72l-69 -56l56 -53v-91l-58 31l-54 -30v97q0 35 -13 57t-43 45l-99 -75l12 -15q16 13 26 13q16 0 19 -20.5t3 -39.5v-260l-41 -37l85 -73l86 71l-35 37v122l54 27l58 -29
v-83q0 -27 1.5 -46.5t7.5 -35.5t17.5 -31t30.5 -32zM287 244l-58 29l-54 -32v27l54 32l58 -30v-26z" />
    <glyph glyph-name="icircumflex" unicode="&#xee;" horiz-adv-x="387" 
d="M199 494q74 -51 158 -72v-331v-25q-44 -17 -76 -34t-69 -45q-42 32 -88.5 54t-93.5 22v12l17 17q2 2 5 10t6 42v268q78 25 141 82zM155 113l104 -45v303l-104 45v-303z" />
    <glyph glyph-name="idieresis" unicode="&#xef;" horiz-adv-x="469" 
d="M437 92l12 -20l-105 -85q-19 17 -31 32.5t-18.5 32t-8.5 36.5t-2 47v250l-39 40l-69 -57v-274l34 -36l-86 -71l-85 73l39 36v272q-1 15 -6.5 23.5t-13 12t-15 3.5t-11.5 -3l-12 15l99 75q30 -23 43.5 -45t13.5 -57l124 102l72 -72l47 45l14 -16q-16 -15 -26 -28
t-15.5 -27t-7.5 -32t-2 -43v-207q0 -9 5.5 -24.5t18.5 -15.5z" />
    <glyph glyph-name="eth" unicode="&#xf0;" horiz-adv-x="426" 
d="M376 328v-245q-25 -13 -42.5 -22t-32.5 -18t-29 -20.5t-30 -29.5q-24 15 -48 25t-28 10l-2.5 -18.5t1 -43t15.5 -50.5t40 -41l-9 -18q-30 9 -55 24t-51 38q-13 -13 -35 -24.5t-46 -21.5l-4 12q29 23 37.5 46t8.5 66v361q0 21 -3 37.5t-23 17.5l-20 -9l-10 13l96 77
q60 -44 60 -106l112 106q27 -20 46 -36t30.5 -34.5t16.5 -41t5 -54.5zM276 72v248v20t-4 22.5t-14.5 24.5t-32.5 26l-59 -56v-249q31 -4 57.5 -12t52.5 -24z" />
    <glyph glyph-name="ntilde" unicode="&#xf1;" horiz-adv-x="316" 
d="M174 494l116 -65l-50 -73l-83 46v-304l86 -39l43 34l10 -13l-115 -93q-64 45 -150 56v12q17 12 22.5 30t5.5 46v203q0 27 -6.5 36.5t-32.5 13.5v12q42 12 81.5 38.5t72.5 59.5z" />
    <glyph glyph-name="ograve" unicode="&#xf2;" horiz-adv-x="674" 
d="M642 83l12 -16l-96 -80q-21 15 -33.5 29t-19 30t-9 36.5t-2.5 49.5v248l-36 40l-72 -62v-267l36 -36l-82 -68l-84 68l32 36v244q0 29 -10.5 46.5t-29.5 35.5l-69 -59v-267l36 -36l-81 -68l-87 71l35 36v270q0 25 -9.5 37.5t-27.5 1.5l-13 -8l-12 18l104 81q35 -24 45 -47
t10 -67l135 114q33 -24 51.5 -51t18.5 -63l133 114l70 -77l39 38l13 -14q-26 -24 -36 -46.5t-10 -56.5v-222q0 -18 3.5 -31t17.5 -16z" />
    <glyph glyph-name="oacute" unicode="&#xf3;" horiz-adv-x="429" 
d="M283 131v260l-36 43l84 60l78 -63l-31 -30v-297q0 -46 -8 -88t-31 -72q-30 -40 -85 -73t-140 -69l-6 18q49 26 82.5 47t54 45.5t29.5 55.5t9 77v35l-143 -114q-45 33 -54.5 79.5t-9.5 105.5v227q0 22 -4.5 36t-12 23.5t-17.5 16t-22 14.5l6 12q23 -6 41.5 -16.5
t34.5 -29.5q25 25 50.5 38t69.5 24l3 -14q-18 -12 -29 -22t-16.5 -22t-7 -27.5t-1.5 -39.5v-145v-40.5t2 -51t7.5 -45t16.5 -23.5z" />
    <glyph glyph-name="ocircumflex" unicode="&#xf4;" horiz-adv-x="594" 
d="M559 328v-245q-25 -13 -43.5 -23t-34 -20.5t-29.5 -22.5t-31 -30q-18 14 -32.5 22t-39.5 19v-50q0 -39 10 -61.5t44 -41.5l-9 -18q-30 9 -55 24t-51 38q-14 -13 -35.5 -24.5t-45.5 -21.5l-4 12q29 23 37.5 46t8.5 66v43q-9 0 -24 -1.5t-34 -8t-41 -19.5t-44 -36
q-22 17 -36 31t-21.5 30.5t-10 37t-2.5 50.5v169q-3 53 9 92t35 68.5t54.5 51t68.5 37.5q5 2 17 7.5t27 11.5t30.5 12t26.5 10l6 -18q-50 -21 -83 -40.5t-52.5 -44t-28 -58.5t-8.5 -84v-210q0 -25 5 -42.5t17 -25.5q36 29 62 39t27 10v241q0 28 -9.5 48t-25.5 12l-11 -6
l-10 13l96 77q60 -44 60 -106l112 106q27 -20 46 -36t30.5 -34.5t16.5 -41t5 -54.5zM459 72v248q0 39 -11.5 58t-39.5 35l-59 -56v-249q31 -4 57.5 -12t52.5 -24z" />
    <glyph glyph-name="otilde" unicode="&#xf5;" horiz-adv-x="462" 
d="M428 86l14 -18l-99 -81q-51 30 -84 97l-54 109l-96 -206l-89 52l37 85l74 -38l62 133q-12 27 -26.5 59.5t-31 61.5t-34 48.5t-36.5 19.5q-15 0 -33 -18l-12 15l101 89q41 -21 69.5 -61t56.5 -98l74 159l101 -51l-43 -84l-77 41l-43 -92q10 -24 25.5 -61.5t33.5 -73.5
t38 -64.5t40 -35.5l15 3z" />
    <glyph glyph-name="odieresis" unicode="&#xf6;" horiz-adv-x="445" 
d="M425 1q0 -42 -28.5 -74.5t-73.5 -56.5l-10 14q21 19 34.5 29.5t13.5 34.5q0 12 -13 32.5t-28 43t-28 44.5t-13 37l-129 -109q-52 41 -65 73q-12 31 -12 107v183q0 49 -15 69t-38 36l6 12q23 -6 41.5 -16.5t34.5 -29.5q25 25 50.5 38t69.5 24l3 -14q-18 -12 -29 -21.5
t-17 -21.5t-8 -27.5t-2 -39.5v-194q0 -24 1 -38t4.5 -24t12 -19t23.5 -23l69 58v262l-33 44l84 60l78 -63l-33 -30v-241q0 -16 7.5 -39t16.5 -46t17 -43t9 -31z" />
    <glyph glyph-name="divide" unicode="&#xf7;" horiz-adv-x="439" 
d="M335 495l84 -70l-40 -33v-299l34 -36l-86 -71l-85 73l37 40v132l-140 -113q-23 16 -36.5 30.5t-21 31t-10 37t-2.5 50.5v91q0 43 -8.5 63.5t-37.5 43.5l4 12q20 -7 44 -20t37 -26q26 23 49 37.5t53 23.5l9 -18q-34 -17 -43.5 -42t-8.5 -63v-86q4 -31 8.5 -51.5
t23.5 -31.5l80 62v130l-32 36z" />
    <glyph glyph-name="oslash" unicode="&#xf8;" horiz-adv-x="674" 
d="M642 93l12 -18l-104 -81q-35 24 -44.5 47.5t-9.5 67.5l-136 -115q-33 24 -51 52t-18 64l-134 -116l-70 77l-39 -38l-13 14q26 24 36 46.5t10 56.5v212q0 23 -3.5 37.5t-16.5 14.5q-6 0 -15 -6l-14 -11l-12 16l96 80q21 -15 33 -29t19 -29.5t9 -36t2 -49.5v-240l37 -41
l75 65v256l-39 37l82 68l84 -68l-32 -36v-237q0 -31 11.5 -47.5t28.5 -34.5l71 60v257l-38 38l81 68l87 -71l-35 -36v-263q0 -41 24 -41q16 0 26 10z" />
    <glyph glyph-name="ugrave" unicode="&#xf9;" horiz-adv-x="659" 
d="M639 1q0 -42 -28.5 -74.5t-73.5 -56.5l-10 14q21 19 34.5 29.5t13.5 34.5q0 12 -13 32.5t-28 43t-28 44.5t-13 37l-133 -111q-33 24 -51.5 51t-18.5 63l-133 -114l-70 77l-39 -38l-13 14q26 24 36 46.5t10 56.5v208q-1 36 -6 46t-14 10q-3 0 -8.5 -3t-20.5 -14l-12 16
l96 80q21 -15 33 -28.5t19 -29.5t9 -36t2 -49l-1 -238l38 -44l72 62v257l-36 39l82 68l84 -68l-32 -39v-234q0 -31 11.5 -47.5t28.5 -34.5l69 59v257l-36 38l81 68l87 -71l-34 -35v-240q0 -17 7 -37.5t15 -41t15.5 -38.5t8.5 -29z" />
    <glyph glyph-name="uacute" unicode="&#xfa;" horiz-adv-x="411" 
d="M391 273v-115q0 -32 -5 -54.5t-16.5 -41t-30.5 -34.5t-46 -36l-112 106q0 -62 -60 -106l-96 77l10 13q17 -7 31.5 -3.5t14.5 29.5v273q-1 -2 -7 -8t-14.5 -13t-19 -13t-20.5 -9v36q48 25 82 61t50 65q8 -17 32 -16t42 7l9 -18q-34 -17 -44 -41t-10 -62v-42q19 8 37.5 18
t34.5 23q32 -36 63 -54.5t75 -41.5zM291 166v121l-37 35q-15 -9 -35.5 -18t-37.5 -16v-159l59 -56q18 12 28 20.5t15.5 18t6.5 22t1 32.5z" />
    <glyph glyph-name="ucircumflex" unicode="&#xfb;" horiz-adv-x="656" 
d="M388 160q0 -32 -5 -54.5t-16.5 -41t-30.5 -34.5t-46 -36l-112 106q0 -62 -60 -106l-96 77l10 13q19 -17 28.5 -15.5t13.5 11.5t4 25v25v226q0 43 -8 66.5t-37 46.5l4 12q20 -7 44 -20t37 -26q26 23 52 36t56 22l7 -14q-34 -17 -45 -37.5t-10 -58.5l1 -57q19 8 37.5 18
t34.5 23q32 -36 63.5 -52.5t73.5 -33.5l81 58v62l-37 35l85 64l83 -68l-34 -31v-315l28 -25l30 25l12 -17l-104 -82q-22 25 -44.5 44t-50.5 38v9q20 14 26 30t6 46v86l-81 -62v-18zM288 168v121l-37 35q-15 -9 -36 -18t-37 -16v-159l59 -56q18 12 28 20.5t15.5 18t6.5 22
t1 32.5zM388 251v-44l81 61v44z" />
    <glyph glyph-name="udieresis" unicode="&#xfc;" horiz-adv-x="408" 
d="M388 160q0 -32 -5 -54.5t-16.5 -41t-30.5 -34.5t-46 -36l-112 106q0 -62 -60 -106l-96 77l10 13q19 -17 29.5 -16t15 10.5t5.5 24t1 24.5v231q0 43 -10.5 65.5t-39.5 45.5l4 12q20 -7 44 -20t37 -26q26 23 51 38t55 24l9 -18q-34 -17 -44.5 -37.5t-10.5 -58.5v-57
q19 8 38 18t35 23q32 -36 63.5 -52.5t73.5 -33.5v-121zM292 168v119l-41 32q-15 -8 -36 -15t-37 -14v-159l59 -56q18 12 29 20.5t16.5 18t7.5 22t2 32.5z" />
    <glyph glyph-name="yacute" unicode="&#xfd;" horiz-adv-x="377" 
d="M85 244l75 53l89 -46v119l-103 48l-72 -32l-26 26q78 25 141 82q74 -51 158 -72v-356q-43 -17 -75 -34t-70 -45q-42 32 -88.5 54t-93.5 22l54 78q47 -7 90.5 -27t84.5 -46v166l-66 -45z" />
    <glyph glyph-name="thorn" unicode="&#xfe;" horiz-adv-x="607" 
d="M429 494q74 -51 158 -72v-331v-25q-43 -17 -75 -34t-70 -45q-42 32 -88.5 54t-93.5 22v12q7 6 17.5 20.5t10.5 19.5v158l-59 29l-61 -32v-175l35 -36l-87 -71l-81 68l35 35v278q-2 25 -5.5 40.5t-9.5 25.5t-14.5 17t-20.5 15l6 12q23 -6 41.5 -16.5t34.5 -29.5
q25 25 50.5 38t69.5 24l3 -14q-25 -16 -39 -40.5t-18 -55.5v-86l64 26l56 -26l1 120q44 16 81.5 35.5t58.5 39.5zM385 113l104 -45v303l-104 45v-303zM168 206l61 33l59 -30v31l-59 26l-61 -31v-29z" />
    <glyph glyph-name="ydieresis" unicode="&#xff;" horiz-adv-x="455" 
d="M131 12l-19 -21l-92 82l14 16l21 -16q10 1 15.5 12.5t11.5 27.5t15.5 35t27.5 36l-60 29v208q44 6 80.5 27t74.5 46l87 -45q15 6 43 21t69 25l3 -14q-37 -23 -47.5 -43t-10.5 -53v-290l34 -36l-86 -71l-85 73l39 36v108l-51 -21q-17 -12 -24 -32t-12.5 -43.5t-15 -48.5
t-32.5 -48zM162 423v-163l66 -41l38 16v146z" />
  </font>
</defs>
</svg>
